<svg width="32" height="32" viewBox="0 0 32 32" fill="none" xmlns="http://www.w3.org/2000/svg">
<rect x="15" y="7" width="1" height="1" fill="#7D7D7D"/>
<rect x="14" y="6" width="1" height="1" fill="#7D7D7D"/>
<rect x="13" y="5" width="1" height="1" fill="#303030"/>
<rect x="13" y="6" width="1" height="1" fill="#7D7D7D"/>
<rect x="12" y="5" width="1" height="1" fill="#303030"/>
<rect x="12" y="6" width="1" height="1" fill="#7D7D7D"/>
<rect x="11" y="6" width="1" height="1" fill="#7D7D7D"/>
<rect x="10" y="7" width="1" height="1" fill="#7D7D7D"/>
<rect x="9" y="6" width="1" height="1" fill="#303030"/>
<rect x="8" y="6" width="1" height="1" fill="#303030"/>
<rect x="7" y="6" width="1" height="1" fill="#303030"/>
<rect x="11" y="5" width="1" height="1" fill="#303030"/>
<rect x="7" y="7" width="1" height="1" fill="#7D7D7D"/>
<rect x="8" y="7" width="1" height="1" fill="#7D7D7D"/>
<rect x="9" y="7" width="1" height="1" fill="#7D7D7D"/>
<rect x="6" y="8" width="1" height="1" fill="#7D7D7D"/>
<rect x="6" y="9" width="1" height="1" fill="#7D7D7D"/>
<rect x="7" y="10" width="1" height="1" fill="#7D7D7D"/>
<rect x="10" y="13" width="1" height="1" fill="#7D7D7D"/>
<rect x="8" y="11" width="1" height="1" fill="#7D7D7D"/>
<rect x="11" y="14" width="1" height="1" fill="#7D7D7D"/>
<rect x="15" y="17" width="1" height="1" fill="#7D7D7D"/>
<rect x="9" y="12" width="1" height="1" fill="#7D7D7D"/>
<rect x="12" y="15" width="1" height="1" fill="#7D7D7D"/>
<rect x="21" y="18" width="1" height="1" fill="#7D7D7D"/>
<rect x="6" y="10" width="1" height="1" fill="#7D7D7D"/>
<rect x="9" y="13" width="1" height="1" fill="#7D7D7D"/>
<rect x="13" y="16" width="1" height="1" fill="#7D7D7D"/>
<rect x="7" y="11" width="1" height="1" fill="#7D7D7D"/>
<rect x="10" y="14" width="1" height="1" fill="#7D7D7D"/>
<rect x="14" y="17" width="1" height="1" fill="#7D7D7D"/>
<rect x="8" y="12" width="1" height="1" fill="#7D7D7D"/>
<rect x="11" y="15" width="1" height="1" fill="#7D7D7D"/>
<rect x="15" y="18" width="1" height="1" fill="#7D7D7D"/>
<rect x="18" y="10" width="1" height="1" fill="#7D7D7D"/>
<rect x="16" y="7" width="1" height="1" fill="#7D7D7D"/>
<rect x="19" y="10" width="1" height="1" fill="#7D7D7D"/>
<rect x="16" y="8" width="1" height="1" fill="#7D7D7D"/>
<rect x="19" y="11" width="1" height="1" fill="#7D7D7D"/>
<rect x="17" y="8" width="1" height="1" fill="#7D7D7D"/>
<rect x="20" y="11" width="1" height="1" fill="#7D7D7D"/>
<rect x="17" y="9" width="1" height="1" fill="#7D7D7D"/>
<rect x="20" y="12" width="1" height="1" fill="#7D7D7D"/>
<rect x="21" y="13" width="1" height="1" fill="#7D7D7D"/>
<rect x="18" y="9" width="1" height="1" fill="#7D7D7D"/>
<rect x="21" y="12" width="1" height="1" fill="#7D7D7D"/>
<rect x="22" y="13" width="1" height="1" fill="#7D7D7D"/>
<rect x="22" y="14" width="1" height="1" fill="#7D7D7D"/>
<rect x="15" y="19" width="1" height="1" fill="#7D7D7D"/>
<rect x="16" y="20" width="1" height="1" fill="#7D7D7D"/>
<rect x="17" y="21" width="1" height="1" fill="#7D7D7D"/>
<rect x="23" y="20" width="1" height="1" fill="#7D7D7D"/>
<rect x="18" y="21" width="1" height="1" fill="#7D7D7D"/>
<rect x="24" y="20" width="1" height="1" fill="#7D7D7D"/>
<rect x="19" y="21" width="1" height="1" fill="#7D7D7D"/>
<rect x="25" y="20" width="1" height="1" fill="#7D7D7D"/>
<rect x="26" y="19" width="1" height="1" fill="#7D7D7D"/>
<rect x="27" y="18" width="1" height="1" fill="#7D7D7D"/>
<rect x="27" y="17" width="1" height="1" fill="#7D7D7D"/>
<rect x="27" y="16" width="1" height="1" fill="#7D7D7D"/>
<rect x="26" y="15" width="1" height="1" fill="#7D7D7D"/>
<rect x="25" y="14" width="1" height="1" fill="#7D7D7D"/>
<rect x="24" y="14" width="1" height="1" fill="#7D7D7D"/>
<rect x="23" y="14" width="1" height="1" fill="#7D7D7D"/>
<rect x="20" y="20" width="1" height="1" fill="#7D7D7D"/>
<rect x="21" y="19" width="1" height="1" fill="#7D7D7D"/>
<rect x="22" y="19" width="1" height="1" fill="#7D7D7D"/>
<rect x="22" y="15" width="1" height="1" fill="#7D7D7D"/>
<rect x="16" y="18" width="1" height="1" fill="#4A4A4A"/>
<rect x="16" y="19" width="1" height="1" fill="#4A4A4A"/>
<rect x="16" y="17" width="1" height="1" fill="#4A4A4A"/>
<rect x="17" y="16" width="1" height="1" fill="#4A4A4A"/>
<rect x="18" y="16" width="1" height="1" fill="#4A4A4A"/>
<rect x="19" y="16" width="1" height="1" fill="#4A4A4A"/>
<rect x="20" y="17" width="1" height="1" fill="#4A4A4A"/>
<rect x="20" y="18" width="1" height="1" fill="#4A4A4A"/>
<rect x="20" y="19" width="1" height="1" fill="#4A4A4A"/>
<rect x="22" y="17" width="1" height="1" fill="#4A4A4A"/>
<rect x="22" y="18" width="1" height="1" fill="#4A4A4A"/>
<rect x="22" y="16" width="1" height="1" fill="#4A4A4A"/>
<rect x="24" y="15" width="1" height="1" fill="#4A4A4A"/>
<rect x="25" y="15" width="1" height="1" fill="#4A4A4A"/>
<rect x="26" y="16" width="1" height="1" fill="#4A4A4A"/>
<rect x="26" y="17" width="1" height="1" fill="#4A4A4A"/>
<rect x="26" y="18" width="1" height="1" fill="#4A4A4A"/>
<rect x="25" y="19" width="1" height="1" fill="#4A4A4A"/>
<rect x="19" y="20" width="1" height="1" fill="#4A4A4A"/>
<rect x="24" y="19" width="1" height="1" fill="#4A4A4A"/>
<rect x="18" y="20" width="1" height="1" fill="#4A4A4A"/>
<rect x="23" y="19" width="1" height="1" fill="#4A4A4A"/>
<rect x="17" y="20" width="1" height="1" fill="#4A4A4A"/>
<rect x="23" y="15" width="1" height="1" fill="#4A4A4A"/>
<rect x="12" y="16" width="1" height="1" fill="#7D7D7D"/>
<rect x="12" y="17" width="1" height="1" fill="#7D7D7D"/>
<rect x="12" y="20" width="1" height="1" fill="#7D7D7D"/>
<rect x="12" y="23" width="1" height="1" fill="#7D7D7D"/>
<rect x="12" y="18" width="1" height="1" fill="#7D7D7D"/>
<rect x="12" y="21" width="1" height="1" fill="#7D7D7D"/>
<rect x="12" y="24" width="1" height="1" fill="#7D7D7D"/>
<rect x="12" y="19" width="1" height="1" fill="#7D7D7D"/>
<rect x="12" y="22" width="1" height="1" fill="#7D7D7D"/>
<rect x="11" y="22" width="1" height="1" fill="#7D7D7D"/>
<rect x="10" y="23" width="1" height="1" fill="#7D7D7D"/>
<rect x="9" y="24" width="1" height="1" fill="#7D7D7D"/>
<rect x="9" y="25" width="1" height="1" fill="#7D7D7D"/>
<rect x="10" y="26" width="1" height="1" fill="#7D7D7D"/>
<rect x="11" y="27" width="1" height="1" fill="#7D7D7D"/>
<rect x="12" y="27" width="1" height="1" fill="#7D7D7D"/>
<rect x="13" y="27" width="1" height="1" fill="#7D7D7D"/>
<rect x="14" y="27" width="1" height="1" fill="#7D7D7D"/>
<rect x="15" y="27" width="1" height="1" fill="#7D7D7D"/>
<rect x="16" y="26" width="1" height="1" fill="#7D7D7D"/>
<rect x="17" y="25" width="1" height="1" fill="#7D7D7D"/>
<rect x="17" y="24" width="1" height="1" fill="#7D7D7D"/>
<rect x="16" y="23" width="1" height="1" fill="#7D7D7D"/>
<rect x="15" y="22" width="1" height="1" fill="#7D7D7D"/>
<rect x="12" y="25" width="1" height="1" fill="#7D7D7D"/>
<rect x="14" y="17" width="1" height="1" fill="#7D7D7D"/>
<rect x="14" y="20" width="1" height="1" fill="#7D7D7D"/>
<rect x="14" y="23" width="1" height="1" fill="#7D7D7D"/>
<rect x="14" y="18" width="1" height="1" fill="#7D7D7D"/>
<rect x="14" y="21" width="1" height="1" fill="#7D7D7D"/>
<rect x="14" y="24" width="1" height="1" fill="#7D7D7D"/>
<rect x="14" y="19" width="1" height="1" fill="#7D7D7D"/>
<rect x="14" y="22" width="1" height="1" fill="#7D7D7D"/>
<rect x="14" y="25" width="1" height="1" fill="#7D7D7D"/>
<rect x="7" y="8" width="9" height="1" fill="#D2D2D2"/>
<rect x="12" y="7" width="3" height="1" fill="#D2D2D2"/>
<rect x="7" y="9" width="10" height="1" fill="#D2D2D2"/>
<rect x="8" y="10" width="10" height="1" fill="#D2D2D2"/>
<rect x="9" y="11" width="10" height="1" fill="#D2D2D2"/>
<rect x="10" y="12" width="10" height="1" fill="#D2D2D2"/>
<rect x="11" y="13" width="10" height="1" fill="#D2D2D2"/>
<rect x="12" y="14" width="10" height="1" fill="#D2D2D2"/>
<rect x="13" y="15" width="9" height="1" fill="#D2D2D2"/>
<rect x="17" y="15" width="3" height="1" fill="#7D7D7D"/>
<rect x="14" y="16" width="2" height="1" fill="#D2D2D2"/>
<rect x="16" y="16" width="1" height="1" fill="#7D7D7D"/>
<rect x="20" y="16" width="1" height="1" fill="#7D7D7D"/>
<rect x="21" y="16" width="1" height="1" fill="#7D7D7D"/>
<rect x="21" y="17" width="1" height="1" fill="#7D7D7D"/>
<rect x="13" y="17" width="1" height="10" fill="#D9D9D9"/>
<rect x="11" y="23" width="1" height="4" fill="#D9D9D9"/>
<rect x="12" y="26" width="1" height="1" fill="#D9D9D9"/>
<rect x="14" y="26" width="1" height="1" fill="#D9D9D9"/>
<rect x="15" y="23" width="1" height="4" fill="#D9D9D9"/>
<rect x="10" y="24" width="1" height="2" fill="#D9D9D9"/>
<rect x="16" y="24" width="1" height="2" fill="#D9D9D9"/>
<rect x="17" y="17" width="3" height="3" fill="#F4F4F4"/>
<rect x="23" y="16" width="3" height="3" fill="#F4F4F4"/>
<rect x="11" y="7" width="1" height="1" fill="#7D7D7D"/>
<rect x="11" y="8" width="1" height="1" fill="#BBBBBB"/>
<rect x="12" y="9" width="1" height="1" fill="#BBBBBB"/>
<rect x="13" y="10" width="1" height="1" fill="#BBBBBB"/>
<rect x="14" y="11" width="1" height="1" fill="#BBBBBB"/>
<rect x="15" y="12" width="1" height="1" fill="#BBBBBB"/>
<rect x="16" y="13" width="1" height="1" fill="#BBBBBB"/>
<rect x="17" y="14" width="1" height="1" fill="#BBBBBB"/>
</svg>
