<svg width="32" height="32" viewBox="0 0 32 32" fill="none" xmlns="http://www.w3.org/2000/svg">
<rect x="13.3913" y="2.6087" width="1.30435" height="1.30435" fill="#7D7D7D"/>
<rect x="12.087" y="1.30432" width="1.30435" height="1.30435" fill="#7D7D7D"/>
<rect x="10.7826" width="1.30435" height="1.30435" fill="#303030"/>
<rect x="10.7826" y="1.30432" width="1.30435" height="1.30435" fill="#7D7D7D"/>
<rect x="9.47826" width="1.30435" height="1.30435" fill="#303030"/>
<rect x="9.47826" y="1.30432" width="1.30435" height="1.30435" fill="#7D7D7D"/>
<rect x="8.17391" y="1.30432" width="1.30435" height="1.30435" fill="#7D7D7D"/>
<rect x="6.86956" y="2.6087" width="1.30435" height="1.30435" fill="#7D7D7D"/>
<rect x="5.56522" y="1.30432" width="1.30435" height="1.30435" fill="#303030"/>
<rect x="4.26087" y="1.30432" width="1.30435" height="1.30435" fill="#303030"/>
<rect x="2.95652" y="1.30432" width="1.30435" height="1.30435" fill="#303030"/>
<rect x="8.17391" width="1.30435" height="1.30435" fill="#303030"/>
<rect x="2.95652" y="2.6087" width="1.30435" height="1.30435" fill="#7D7D7D"/>
<rect x="4.26087" y="2.6087" width="1.30435" height="1.30435" fill="#7D7D7D"/>
<rect x="5.56522" y="2.6087" width="1.30435" height="1.30435" fill="#7D7D7D"/>
<rect x="1.65218" y="3.91302" width="1.30435" height="1.30435" fill="#7D7D7D"/>
<rect x="1.65218" y="5.21741" width="1.30435" height="1.30435" fill="#7D7D7D"/>
<rect x="2.95652" y="6.52173" width="1.30435" height="1.30435" fill="#7D7D7D"/>
<rect x="6.86956" y="10.4348" width="1.30435" height="1.30435" fill="#7D7D7D"/>
<rect x="4.26087" y="7.82605" width="1.30435" height="1.30435" fill="#7D7D7D"/>
<rect x="8.17391" y="11.7391" width="1.30435" height="1.30435" fill="#7D7D7D"/>
<rect x="13.3913" y="15.6522" width="1.30435" height="1.30435" fill="#7D7D7D"/>
<rect x="5.56522" y="9.13043" width="1.30435" height="1.30435" fill="#7D7D7D"/>
<rect x="9.47826" y="13.0435" width="1.30435" height="1.30435" fill="#7D7D7D"/>
<rect x="21.2174" y="16.9565" width="1.30435" height="1.30435" fill="#7D7D7D"/>
<rect x="1.65218" y="6.52173" width="1.30435" height="1.30435" fill="#7D7D7D"/>
<rect x="5.56522" y="10.4348" width="1.30435" height="1.30435" fill="#7D7D7D"/>
<rect x="10.7826" y="14.3478" width="1.30435" height="1.30435" fill="#7D7D7D"/>
<rect x="2.95652" y="7.82605" width="1.30435" height="1.30435" fill="#7D7D7D"/>
<rect x="6.86956" y="11.7391" width="1.30435" height="1.30435" fill="#7D7D7D"/>
<rect x="12.087" y="15.6522" width="1.30435" height="1.30435" fill="#7D7D7D"/>
<rect x="4.26087" y="9.13043" width="1.30435" height="1.30435" fill="#7D7D7D"/>
<rect x="8.17391" y="13.0435" width="1.30435" height="1.30435" fill="#7D7D7D"/>
<rect x="13.3913" y="16.9565" width="1.30435" height="1.30435" fill="#7D7D7D"/>
<rect x="17.3043" y="6.52173" width="1.30435" height="1.30435" fill="#7D7D7D"/>
<rect x="14.6957" y="2.6087" width="1.30435" height="1.30435" fill="#7D7D7D"/>
<rect x="18.6087" y="6.52173" width="1.30435" height="1.30435" fill="#7D7D7D"/>
<rect x="14.6957" y="3.91302" width="1.30435" height="1.30435" fill="#7D7D7D"/>
<rect x="18.6087" y="7.82605" width="1.30435" height="1.30435" fill="#7D7D7D"/>
<rect x="16" y="3.91302" width="1.30435" height="1.30435" fill="#7D7D7D"/>
<rect x="19.9131" y="7.82605" width="1.30435" height="1.30435" fill="#7D7D7D"/>
<rect x="16" y="5.21741" width="1.30435" height="1.30435" fill="#7D7D7D"/>
<rect x="19.9131" y="9.13043" width="1.30435" height="1.30435" fill="#7D7D7D"/>
<rect x="21.2174" y="10.4348" width="1.30435" height="1.30435" fill="#7D7D7D"/>
<rect x="17.3043" y="5.21741" width="1.30435" height="1.30435" fill="#7D7D7D"/>
<rect x="21.2174" y="9.13043" width="1.30435" height="1.30435" fill="#7D7D7D"/>
<rect x="22.5217" y="10.4348" width="1.30435" height="1.30435" fill="#7D7D7D"/>
<rect x="22.5217" y="11.7391" width="1.30435" height="1.30435" fill="#7D7D7D"/>
<rect x="13.3913" y="18.2609" width="1.30435" height="1.30435" fill="#7D7D7D"/>
<rect x="14.6957" y="19.5652" width="1.30435" height="1.30435" fill="#7D7D7D"/>
<rect x="16" y="20.8696" width="1.30435" height="1.30435" fill="#7D7D7D"/>
<rect x="23.8261" y="19.5652" width="1.30435" height="1.30435" fill="#7D7D7D"/>
<rect x="17.3043" y="20.8696" width="1.30435" height="1.30435" fill="#7D7D7D"/>
<rect x="25.1304" y="19.5652" width="1.30435" height="1.30435" fill="#7D7D7D"/>
<rect x="18.6087" y="20.8696" width="1.30435" height="1.30435" fill="#7D7D7D"/>
<rect x="26.4348" y="19.5652" width="1.30435" height="1.30435" fill="#7D7D7D"/>
<rect x="27.7391" y="18.2609" width="1.30435" height="1.30435" fill="#7D7D7D"/>
<rect x="29.0435" y="16.9565" width="1.30435" height="1.30435" fill="#7D7D7D"/>
<rect x="29.0435" y="15.6522" width="1.30435" height="1.30435" fill="#7D7D7D"/>
<rect x="29.0435" y="14.3478" width="1.30435" height="1.30435" fill="#7D7D7D"/>
<rect x="27.7391" y="13.0435" width="1.30435" height="1.30435" fill="#7D7D7D"/>
<rect x="26.4348" y="11.7391" width="1.30435" height="1.30435" fill="#7D7D7D"/>
<rect x="25.1304" y="11.7391" width="1.30435" height="1.30435" fill="#7D7D7D"/>
<rect x="23.8261" y="11.7391" width="1.30435" height="1.30435" fill="#7D7D7D"/>
<rect x="19.9131" y="19.5652" width="1.30435" height="1.30435" fill="#7D7D7D"/>
<rect x="21.2174" y="18.2609" width="1.30435" height="1.30435" fill="#7D7D7D"/>
<rect x="22.5217" y="18.2609" width="1.30435" height="1.30435" fill="#7D7D7D"/>
<rect x="22.5217" y="13.0435" width="1.30435" height="1.30435" fill="#7D7D7D"/>
<rect x="14.6956" y="16.9565" width="1.30435" height="1.30435" fill="#4A4A4A"/>
<rect x="14.6956" y="18.2609" width="1.30435" height="1.30435" fill="#4A4A4A"/>
<rect x="14.6956" y="15.6522" width="1.30435" height="1.30435" fill="#4A4A4A"/>
<rect x="16" y="14.3478" width="1.30435" height="1.30435" fill="#4A4A4A"/>
<rect x="17.3044" y="14.3478" width="1.30435" height="1.30435" fill="#4A4A4A"/>
<rect x="18.6087" y="14.3478" width="1.30435" height="1.30435" fill="#4A4A4A"/>
<rect x="19.913" y="15.6522" width="1.30435" height="1.30435" fill="#4A4A4A"/>
<rect x="19.913" y="16.9565" width="1.30435" height="1.30435" fill="#4A4A4A"/>
<rect x="19.913" y="18.2609" width="1.30435" height="1.30435" fill="#4A4A4A"/>
<rect x="22.5217" y="15.6522" width="1.30435" height="1.30435" fill="#4A4A4A"/>
<rect x="22.5217" y="16.9565" width="1.30435" height="1.30435" fill="#4A4A4A"/>
<rect x="22.5217" y="14.3478" width="1.30435" height="1.30435" fill="#4A4A4A"/>
<rect x="25.1304" y="13.0435" width="1.30435" height="1.30435" fill="#4A4A4A"/>
<rect x="26.4348" y="13.0435" width="1.30435" height="1.30435" fill="#4A4A4A"/>
<rect x="27.7391" y="14.3478" width="1.30435" height="1.30435" fill="#4A4A4A"/>
<rect x="27.7391" y="15.6522" width="1.30435" height="1.30435" fill="#4A4A4A"/>
<rect x="27.7391" y="16.9565" width="1.30435" height="1.30435" fill="#4A4A4A"/>
<rect x="26.4348" y="18.2609" width="1.30435" height="1.30435" fill="#4A4A4A"/>
<rect x="18.6087" y="19.5652" width="1.30435" height="1.30435" fill="#4A4A4A"/>
<rect x="25.1304" y="18.2609" width="1.30435" height="1.30435" fill="#4A4A4A"/>
<rect x="17.3044" y="19.5652" width="1.30435" height="1.30435" fill="#4A4A4A"/>
<rect x="23.8261" y="18.2609" width="1.30435" height="1.30435" fill="#4A4A4A"/>
<rect x="16" y="19.5652" width="1.30435" height="1.30435" fill="#4A4A4A"/>
<rect x="23.8261" y="13.0435" width="1.30435" height="1.30435" fill="#4A4A4A"/>
<rect x="9.47826" y="14.3478" width="1.30435" height="1.30435" fill="#7D7D7D"/>
<rect x="9.47826" y="15.6522" width="1.30435" height="1.30435" fill="#7D7D7D"/>
<rect x="9.47826" y="19.5652" width="1.30435" height="1.30435" fill="#7D7D7D"/>
<rect x="9.47826" y="23.4783" width="1.30435" height="1.30435" fill="#7D7D7D"/>
<rect x="9.47826" y="16.9565" width="1.30435" height="1.30435" fill="#7D7D7D"/>
<rect x="9.47826" y="20.8696" width="1.30435" height="1.30435" fill="#7D7D7D"/>
<rect x="9.47826" y="24.7826" width="1.30435" height="1.30435" fill="#7D7D7D"/>
<rect x="9.47826" y="18.2609" width="1.30435" height="1.30435" fill="#7D7D7D"/>
<rect x="9.47826" y="22.174" width="1.30435" height="1.30435" fill="#7D7D7D"/>
<rect x="8.17391" y="22.174" width="1.30435" height="1.30435" fill="#7D7D7D"/>
<rect x="6.86956" y="23.4783" width="1.30435" height="1.30435" fill="#7D7D7D"/>
<rect x="5.56522" y="24.7826" width="1.30435" height="1.30435" fill="#7D7D7D"/>
<rect x="5.56522" y="26.087" width="1.30435" height="1.30435" fill="#7D7D7D"/>
<rect x="6.86956" y="27.3913" width="1.30435" height="1.30435" fill="#7D7D7D"/>
<rect x="8.17391" y="28.6957" width="1.30435" height="1.30435" fill="#7D7D7D"/>
<rect x="9.47826" y="28.6957" width="1.30435" height="1.30435" fill="#7D7D7D"/>
<rect x="10.7826" y="28.6957" width="1.30435" height="1.30435" fill="#7D7D7D"/>
<rect x="12.087" y="28.6957" width="1.30435" height="1.30435" fill="#7D7D7D"/>
<rect x="13.3913" y="28.6957" width="1.30435" height="1.30435" fill="#7D7D7D"/>
<rect x="14.6957" y="27.3913" width="1.30435" height="1.30435" fill="#7D7D7D"/>
<rect x="16" y="26.087" width="1.30435" height="1.30435" fill="#7D7D7D"/>
<rect x="16" y="24.7826" width="1.30435" height="1.30435" fill="#7D7D7D"/>
<rect x="14.6957" y="23.4783" width="1.30435" height="1.30435" fill="#7D7D7D"/>
<rect x="13.3913" y="22.174" width="1.30435" height="1.30435" fill="#7D7D7D"/>
<rect x="9.47826" y="26.087" width="1.30435" height="1.30435" fill="#7D7D7D"/>
<rect x="12.087" y="15.6522" width="1.30435" height="1.30435" fill="#7D7D7D"/>
<rect x="12.087" y="19.5652" width="1.30435" height="1.30435" fill="#7D7D7D"/>
<rect x="12.087" y="23.4783" width="1.30435" height="1.30435" fill="#7D7D7D"/>
<rect x="12.087" y="16.9565" width="1.30435" height="1.30435" fill="#7D7D7D"/>
<rect x="12.087" y="20.8696" width="1.30435" height="1.30435" fill="#7D7D7D"/>
<rect x="12.087" y="24.7826" width="1.30435" height="1.30435" fill="#7D7D7D"/>
<rect x="12.087" y="18.2609" width="1.30435" height="1.30435" fill="#7D7D7D"/>
<rect x="12.087" y="22.174" width="1.30435" height="1.30435" fill="#7D7D7D"/>
<rect x="12.087" y="26.087" width="1.30435" height="1.30435" fill="#7D7D7D"/>
<rect x="2.95652" y="3.91302" width="11.7391" height="1.30435" fill="#D2D2D2"/>
<rect x="9.47826" y="2.6087" width="3.91304" height="1.30435" fill="#D2D2D2"/>
<rect x="2.95652" y="5.21741" width="13.0435" height="1.30435" fill="#D2D2D2"/>
<rect x="4.26087" y="6.52173" width="13.0435" height="1.30435" fill="#D2D2D2"/>
<rect x="5.56522" y="7.82605" width="13.0435" height="1.30435" fill="#D2D2D2"/>
<rect x="6.86956" y="9.13043" width="13.0435" height="1.30435" fill="#D2D2D2"/>
<rect x="8.17391" y="10.4348" width="13.0435" height="1.30435" fill="#D2D2D2"/>
<rect x="9.47826" y="11.7391" width="13.0435" height="1.30435" fill="#D2D2D2"/>
<rect x="10.7826" y="13.0435" width="11.7391" height="1.30435" fill="#D2D2D2"/>
<rect x="16" y="13.0435" width="3.91304" height="1.30435" fill="#7D7D7D"/>
<rect x="12.087" y="14.3478" width="2.6087" height="1.30435" fill="#D2D2D2"/>
<rect x="14.6957" y="14.3478" width="1.30435" height="1.30435" fill="#7D7D7D"/>
<rect x="19.9131" y="14.3478" width="1.30435" height="1.30435" fill="#7D7D7D"/>
<rect x="21.2174" y="14.3478" width="1.30435" height="1.30435" fill="#7D7D7D"/>
<rect x="21.2174" y="15.6522" width="1.30435" height="1.30435" fill="#7D7D7D"/>
<rect x="10.7826" y="15.6522" width="1.30435" height="13.0435" fill="#D9D9D9"/>
<rect x="8.17391" y="23.4783" width="1.30435" height="5.21739" fill="#D9D9D9"/>
<rect x="9.47826" y="27.3913" width="1.30435" height="1.30435" fill="#D9D9D9"/>
<rect x="12.087" y="27.3913" width="1.30435" height="1.30435" fill="#D9D9D9"/>
<rect x="13.3913" y="23.4783" width="1.30435" height="5.21739" fill="#D9D9D9"/>
<rect x="6.86956" y="24.7826" width="1.30435" height="2.6087" fill="#D9D9D9"/>
<rect x="14.6957" y="24.7826" width="1.30435" height="2.6087" fill="#D9D9D9"/>
<rect x="16" y="15.6522" width="3.91304" height="3.91304" fill="#F4F4F4"/>
<rect x="23.8261" y="14.3478" width="3.91304" height="3.91304" fill="#F4F4F4"/>
<rect x="8.17391" y="2.6087" width="1.30435" height="1.30435" fill="#7D7D7D"/>
<rect x="8.17391" y="3.91302" width="1.30435" height="1.30435" fill="#BBBBBB"/>
<rect x="9.47826" y="5.21741" width="1.30435" height="1.30435" fill="#BBBBBB"/>
<rect x="10.7826" y="6.52173" width="1.30435" height="1.30435" fill="#BBBBBB"/>
<rect x="12.087" y="7.82605" width="1.30435" height="1.30435" fill="#BBBBBB"/>
<rect x="13.3913" y="9.13043" width="1.30435" height="1.30435" fill="#BBBBBB"/>
<rect x="14.6957" y="10.4348" width="1.30435" height="1.30435" fill="#BBBBBB"/>
<rect x="16" y="11.7391" width="1.30435" height="1.30435" fill="#BBBBBB"/>
</svg>
