<svg width="32" height="32" viewBox="0 0 32 32" fill="none" xmlns="http://www.w3.org/2000/svg">
<g id="Bottom_Flower">
<g id="Bottom_Flower_2">
<g id="Flower1_Head">
<rect id="Rectangle 1" x="9" y="2" width="1" height="1" fill="#DC5F20"/>
<rect id="Rectangle 7" x="9" y="3" width="1" height="1" fill="#DC5F20"/>
<rect id="Rectangle 13" x="5" y="4" width="1" height="1" fill="#DC5F20"/>
<rect id="Rectangle 207" x="5" y="6" width="1" height="1" fill="#EBB72D"/>
<rect id="Rectangle 235" x="11" y="4" width="1" height="1" fill="#EBB72D"/>
<rect id="Rectangle 211" x="7" y="6" width="1" height="1" fill="#EBB72D"/>
<rect id="Rectangle 236" x="13" y="4" width="1" height="1" fill="#EBB72D"/>
<rect id="Rectangle 247" x="13" y="6" width="1" height="1" fill="#EBB72D"/>
<rect id="Rectangle 251" x="11" y="10" width="1" height="1" fill="#EBB72D"/>
<rect id="Rectangle 255" x="11" y="12" width="1" height="1" fill="#EBB72D"/>
<rect id="Rectangle 259" x="9" y="12" width="1" height="1" fill="#EBB72D"/>
<rect id="Rectangle 263" x="9" y="14" width="1" height="1" fill="#EBB72D"/>
<rect id="Rectangle 267" x="7" y="8" width="1" height="1" fill="#F4D934"/>
<rect id="Rectangle 271" x="9" y="8" width="1" height="1" fill="#F4D934"/>
<rect id="Rectangle 275" x="9" y="10" width="1" height="1" fill="#F4D934"/>
<rect id="Rectangle 279" x="7" y="10" width="1" height="1" fill="#F4D934"/>
<rect id="Rectangle 215" x="5" y="8" width="1" height="1" fill="#EBB72D"/>
<rect id="Rectangle 237" x="11" y="6" width="1" height="1" fill="#EBB72D"/>
<rect id="Rectangle 219" x="5" y="12" width="1" height="1" fill="#EBB72D"/>
<rect id="Rectangle 223" x="3" y="12" width="1" height="1" fill="#EBB72D"/>
<rect id="Rectangle 227" x="3" y="14" width="1" height="1" fill="#EBB72D"/>
<rect id="Rectangle 231" x="5" y="14" width="1" height="1" fill="#EBB72D"/>
<rect id="Rectangle 53" x="1" y="10" width="1" height="1" fill="#DC5F20"/>
<rect id="Rectangle 93" x="7" y="12" width="1" height="1" fill="#DC5F20"/>
<rect id="Rectangle 65" x="11" y="8" width="1" height="1" fill="#DC5F20"/>
<rect id="Rectangle 103" x="3" y="16" width="1" height="1" fill="#DC5F20"/>
<rect id="Rectangle 19" x="5" y="5" width="1" height="1" fill="#DC5F20"/>
<rect id="Rectangle 208" x="5" y="7" width="1" height="1" fill="#EBB72D"/>
<rect id="Rectangle 238" x="11" y="5" width="1" height="1" fill="#EBB72D"/>
<rect id="Rectangle 212" x="7" y="7" width="1" height="1" fill="#EBB72D"/>
<rect id="Rectangle 239" x="13" y="5" width="1" height="1" fill="#EBB72D"/>
<rect id="Rectangle 248" x="13" y="7" width="1" height="1" fill="#EBB72D"/>
<rect id="Rectangle 252" x="11" y="11" width="1" height="1" fill="#EBB72D"/>
<rect id="Rectangle 256" x="11" y="13" width="1" height="1" fill="#EBB72D"/>
<rect id="Rectangle 260" x="9" y="13" width="1" height="1" fill="#EBB72D"/>
<rect id="Rectangle 264" x="9" y="15" width="1" height="1" fill="#EBB72D"/>
<rect id="Rectangle 268" x="7" y="9" width="1" height="1" fill="#F4D934"/>
<rect id="Rectangle 272" x="9" y="9" width="1" height="1" fill="#F4D934"/>
<rect id="Rectangle 276" x="9" y="11" width="1" height="1" fill="#F4D934"/>
<rect id="Rectangle 280" x="7" y="11" width="1" height="1" fill="#F4D934"/>
<rect id="Rectangle 216" x="5" y="9" width="1" height="1" fill="#EBB72D"/>
<rect id="Rectangle 240" x="11" y="7" width="1" height="1" fill="#EBB72D"/>
<rect id="Rectangle 220" x="5" y="13" width="1" height="1" fill="#EBB72D"/>
<rect id="Rectangle 224" x="3" y="13" width="1" height="1" fill="#EBB72D"/>
<rect id="Rectangle 228" x="3" y="15" width="1" height="1" fill="#EBB72D"/>
<rect id="Rectangle 232" x="5" y="15" width="1" height="1" fill="#EBB72D"/>
<rect id="Rectangle 54" x="1" y="11" width="1" height="1" fill="#DC5F20"/>
<rect id="Rectangle 94" x="7" y="13" width="1" height="1" fill="#DC5F20"/>
<rect id="Rectangle 66" x="11" y="9" width="1" height="1" fill="#DC5F20"/>
<rect id="Rectangle 104" x="3" y="17" width="1" height="1" fill="#DC5F20"/>
<rect id="Rectangle 2" x="10" y="2" width="1" height="1" fill="#DC5F20"/>
<rect id="Rectangle 8" x="10" y="3" width="1" height="1" fill="#DC5F20"/>
<rect id="Rectangle 14" x="6" y="4" width="1" height="1" fill="#DC5F20"/>
<rect id="Rectangle 209" x="6" y="6" width="1" height="1" fill="#EBB72D"/>
<rect id="Rectangle 241" x="12" y="4" width="1" height="1" fill="#EBB72D"/>
<rect id="Rectangle 213" x="8" y="6" width="1" height="1" fill="#EBB72D"/>
<rect id="Rectangle 242" x="14" y="4" width="1" height="1" fill="#EBB72D"/>
<rect id="Rectangle 249" x="14" y="6" width="1" height="1" fill="#EBB72D"/>
<rect id="Rectangle 253" x="12" y="10" width="1" height="1" fill="#EBB72D"/>
<rect id="Rectangle 257" x="12" y="12" width="1" height="1" fill="#EBB72D"/>
<rect id="Rectangle 261" x="10" y="12" width="1" height="1" fill="#EBB72D"/>
<rect id="Rectangle 265" x="10" y="14" width="1" height="1" fill="#EBB72D"/>
<rect id="Rectangle 269" x="8" y="8" width="1" height="1" fill="#F4D934"/>
<rect id="Rectangle 273" x="10" y="8" width="1" height="1" fill="#F4D934"/>
<rect id="Rectangle 277" x="10" y="10" width="1" height="1" fill="#F4D934"/>
<rect id="Rectangle 281" x="8" y="10" width="1" height="1" fill="#F4D934"/>
<rect id="Rectangle 217" x="6" y="8" width="1" height="1" fill="#EBB72D"/>
<rect id="Rectangle 243" x="12" y="6" width="1" height="1" fill="#EBB72D"/>
<rect id="Rectangle 221" x="6" y="12" width="1" height="1" fill="#EBB72D"/>
<rect id="Rectangle 225" x="4" y="12" width="1" height="1" fill="#EBB72D"/>
<rect id="Rectangle 229" x="4" y="14" width="1" height="1" fill="#EBB72D"/>
<rect id="Rectangle 233" x="6" y="14" width="1" height="1" fill="#EBB72D"/>
<rect id="Rectangle 55" x="2" y="10" width="1" height="1" fill="#DC5F20"/>
<rect id="Rectangle 95" x="8" y="12" width="1" height="1" fill="#DC5F20"/>
<rect id="Rectangle 67" x="12" y="8" width="1" height="1" fill="#DC5F20"/>
<rect id="Rectangle 105" x="4" y="16" width="1" height="1" fill="#DC5F20"/>
<rect id="Rectangle 20" x="6" y="5" width="1" height="1" fill="#DC5F20"/>
<rect id="Rectangle 210" x="6" y="7" width="1" height="1" fill="#EBB72D"/>
<rect id="Rectangle 244" x="12" y="5" width="1" height="1" fill="#EBB72D"/>
<rect id="Rectangle 214" x="8" y="7" width="1" height="1" fill="#EBB72D"/>
<rect id="Rectangle 245" x="14" y="5" width="1" height="1" fill="#EBB72D"/>
<rect id="Rectangle 250" x="14" y="7" width="1" height="1" fill="#EBB72D"/>
<rect id="Rectangle 254" x="12" y="11" width="1" height="1" fill="#EBB72D"/>
<rect id="Rectangle 258" x="12" y="13" width="1" height="1" fill="#EBB72D"/>
<rect id="Rectangle 262" x="10" y="13" width="1" height="1" fill="#EBB72D"/>
<rect id="Rectangle 266" x="10" y="15" width="1" height="1" fill="#EBB72D"/>
<rect id="Rectangle 270" x="8" y="9" width="1" height="1" fill="#F4D934"/>
<rect id="Rectangle 274" x="10" y="9" width="1" height="1" fill="#F4D934"/>
<rect id="Rectangle 278" x="10" y="11" width="1" height="1" fill="#F4D934"/>
<rect id="Rectangle 282" x="8" y="11" width="1" height="1" fill="#F4D934"/>
<rect id="Rectangle 218" x="6" y="9" width="1" height="1" fill="#EBB72D"/>
<rect id="Rectangle 246" x="12" y="7" width="1" height="1" fill="#EBB72D"/>
<rect id="Rectangle 222" x="6" y="13" width="1" height="1" fill="#EBB72D"/>
<rect id="Rectangle 226" x="4" y="13" width="1" height="1" fill="#EBB72D"/>
<rect id="Rectangle 230" x="4" y="15" width="1" height="1" fill="#EBB72D"/>
<rect id="Rectangle 234" x="6" y="15" width="1" height="1" fill="#EBB72D"/>
<rect id="Rectangle 56" x="2" y="11" width="1" height="1" fill="#DC5F20"/>
<rect id="Rectangle 96" x="8" y="13" width="1" height="1" fill="#DC5F20"/>
<rect id="Rectangle 68" x="12" y="9" width="1" height="1" fill="#DC5F20"/>
<rect id="Rectangle 106" x="4" y="17" width="1" height="1" fill="#DC5F20"/>
<rect id="Rectangle 3" x="11" y="2" width="1" height="1" fill="#DC5F20"/>
<rect id="Rectangle 9" x="11" y="3" width="1" height="1" fill="#DC5F20"/>
<rect id="Rectangle 15" x="7" y="4" width="1" height="1" fill="#DC5F20"/>
<rect id="Rectangle 57" x="3" y="10" width="1" height="1" fill="#DC5F20"/>
<rect id="Rectangle 107" x="5" y="16" width="1" height="1" fill="#DC5F20"/>
<rect id="Rectangle 21" x="7" y="5" width="1" height="1" fill="#DC5F20"/>
<rect id="Rectangle 58" x="3" y="11" width="1" height="1" fill="#DC5F20"/>
<rect id="Rectangle 108" x="5" y="17" width="1" height="1" fill="#DC5F20"/>
<rect id="Rectangle 4" x="12" y="2" width="1" height="1" fill="#DC5F20"/>
<rect id="Rectangle 10" x="12" y="3" width="1" height="1" fill="#DC5F20"/>
<rect id="Rectangle 16" x="8" y="4" width="1" height="1" fill="#DC5F20"/>
<rect id="Rectangle 59" x="4" y="10" width="1" height="1" fill="#DC5F20"/>
<rect id="Rectangle 109" x="6" y="16" width="1" height="1" fill="#DC5F20"/>
<rect id="Rectangle 22" x="8" y="5" width="1" height="1" fill="#DC5F20"/>
<rect id="Rectangle 60" x="4" y="11" width="1" height="1" fill="#DC5F20"/>
<rect id="Rectangle 110" x="6" y="17" width="1" height="1" fill="#DC5F20"/>
<rect id="Rectangle 5" x="13" y="2" width="1" height="1" fill="#DC5F20"/>
<rect id="Rectangle 11" x="13" y="3" width="1" height="1" fill="#DC5F20"/>
<rect id="Rectangle 17" x="9" y="4" width="1" height="1" fill="#DC5F20"/>
<rect id="Rectangle 61" x="5" y="10" width="1" height="1" fill="#DC5F20"/>
<rect id="Rectangle 111" x="9" y="16" width="1" height="1" fill="#DC5F20"/>
<rect id="Rectangle 37" x="3" y="6" width="1" height="1" fill="#DC5F20"/>
<rect id="Rectangle 45" x="1" y="12" width="1" height="1" fill="#DC5F20"/>
<rect id="Rectangle 97" x="7" y="14" width="1" height="1" fill="#DC5F20"/>
<rect id="Rectangle 29" x="15" y="4" width="1" height="1" fill="#DC5F20"/>
<rect id="Rectangle 23" x="9" y="5" width="1" height="1" fill="#DC5F20"/>
<rect id="Rectangle 62" x="5" y="11" width="1" height="1" fill="#DC5F20"/>
<rect id="Rectangle 113" x="9" y="17" width="1" height="1" fill="#DC5F20"/>
<rect id="Rectangle 38" x="3" y="7" width="1" height="1" fill="#DC5F20"/>
<rect id="Rectangle 46" x="1" y="13" width="1" height="1" fill="#DC5F20"/>
<rect id="Rectangle 98" x="7" y="15" width="1" height="1" fill="#DC5F20"/>
<rect id="Rectangle 30" x="15" y="5" width="1" height="1" fill="#DC5F20"/>
<rect id="Rectangle 25" x="9" y="6" width="1" height="1" fill="#DC5F20"/>
<rect id="Rectangle 39" x="3" y="8" width="1" height="1" fill="#DC5F20"/>
<rect id="Rectangle 47" x="1" y="14" width="1" height="1" fill="#DC5F20"/>
<rect id="Rectangle 123" x="11" y="14" width="1" height="1" fill="#DC5F20"/>
<rect id="Rectangle 31" x="15" y="6" width="1" height="1" fill="#DC5F20"/>
<rect id="Rectangle 27" x="9" y="7" width="1" height="1" fill="#DC5F20"/>
<rect id="Rectangle 40" x="3" y="9" width="1" height="1" fill="#DC5F20"/>
<rect id="Rectangle 48" x="1" y="15" width="1" height="1" fill="#DC5F20"/>
<rect id="Rectangle 124" x="11" y="15" width="1" height="1" fill="#DC5F20"/>
<rect id="Rectangle 32" x="15" y="7" width="1" height="1" fill="#DC5F20"/>
<rect id="Rectangle 6" x="14" y="2" width="1" height="1" fill="#DC5F20"/>
<rect id="Rectangle 12" x="14" y="3" width="1" height="1" fill="#DC5F20"/>
<rect id="Rectangle 18" x="10" y="4" width="1" height="1" fill="#DC5F20"/>
<rect id="Rectangle 63" x="6" y="10" width="1" height="1" fill="#DC5F20"/>
<rect id="Rectangle 115" x="10" y="16" width="1" height="1" fill="#DC5F20"/>
<rect id="Rectangle 41" x="4" y="6" width="1" height="1" fill="#DC5F20"/>
<rect id="Rectangle 49" x="2" y="12" width="1" height="1" fill="#DC5F20"/>
<rect id="Rectangle 101" x="8" y="14" width="1" height="1" fill="#DC5F20"/>
<rect id="Rectangle 33" x="16" y="4" width="1" height="1" fill="#DC5F20"/>
<rect id="Rectangle 24" x="10" y="5" width="1" height="1" fill="#DC5F20"/>
<rect id="Rectangle 64" x="6" y="11" width="1" height="1" fill="#DC5F20"/>
<rect id="Rectangle 117" x="10" y="17" width="1" height="1" fill="#DC5F20"/>
<rect id="Rectangle 42" x="4" y="7" width="1" height="1" fill="#DC5F20"/>
<rect id="Rectangle 50" x="2" y="13" width="1" height="1" fill="#DC5F20"/>
<rect id="Rectangle 102" x="8" y="15" width="1" height="1" fill="#DC5F20"/>
<rect id="Rectangle 34" x="16" y="5" width="1" height="1" fill="#DC5F20"/>
<rect id="Rectangle 26" x="10" y="6" width="1" height="1" fill="#DC5F20"/>
<rect id="Rectangle 43" x="4" y="8" width="1" height="1" fill="#DC5F20"/>
<rect id="Rectangle 51" x="2" y="14" width="1" height="1" fill="#DC5F20"/>
<rect id="Rectangle 125" x="12" y="14" width="1" height="1" fill="#DC5F20"/>
<rect id="Rectangle 35" x="16" y="6" width="1" height="1" fill="#DC5F20"/>
<rect id="Rectangle 28" x="10" y="7" width="1" height="1" fill="#DC5F20"/>
<rect id="Rectangle 44" x="4" y="9" width="1" height="1" fill="#DC5F20"/>
<rect id="Rectangle 52" x="2" y="15" width="1" height="1" fill="#DC5F20"/>
<rect id="Rectangle 126" x="12" y="15" width="1" height="1" fill="#DC5F20"/>
<rect id="Rectangle 36" x="16" y="7" width="1" height="1" fill="#DC5F20"/>
<rect id="Rectangle 69" x="13" y="8" width="1" height="1" fill="#DC5F20"/>
<rect id="Rectangle 70" x="13" y="9" width="1" height="1" fill="#DC5F20"/>
<rect id="Rectangle 71" x="14" y="8" width="1" height="1" fill="#DC5F20"/>
<rect id="Rectangle 72" x="14" y="9" width="1" height="1" fill="#DC5F20"/>
<rect id="Rectangle 286" x="14" y="14" width="1" height="1" fill="#F4D934"/>
<rect id="Rectangle 290" x="14" y="15" width="1" height="1" fill="#F4D934"/>
<rect id="Rectangle 112" x="11" y="16" width="1" height="1" fill="#DC5F20"/>
<rect id="Rectangle 114" x="11" y="17" width="1" height="1" fill="#DC5F20"/>
<rect id="Rectangle 87" x="13" y="14" width="1" height="1" fill="#DC5F20"/>
<rect id="Rectangle 88" x="13" y="15" width="1" height="1" fill="#DC5F20"/>
<rect id="Rectangle 116" x="12" y="16" width="1" height="1" fill="#DC5F20"/>
<rect id="Rectangle 118" x="12" y="17" width="1" height="1" fill="#DC5F20"/>
<rect id="Rectangle 91" x="14" y="14" width="1" height="1" fill="#DC5F20"/>
<rect id="Rectangle 92" x="14" y="15" width="1" height="1" fill="#DC5F20"/>
</g>
<g id="Flower1_body">
<rect id="Rectangle 283" x="3" y="18" width="1" height="1" fill="#33591E"/>
<rect id="Rectangle 391" x="3" y="20" width="1" height="1" fill="#58CAAF"/>
<rect id="Rectangle 395" x="5" y="22" width="1" height="1" fill="#58CAAF"/>
<rect id="Rectangle 399" x="5" y="20" width="1" height="1" fill="#00A077"/>
<rect id="Rectangle 403" x="7" y="20" width="1" height="1" fill="#00A077"/>
<rect id="Rectangle 411" x="3" y="22" width="1" height="1" fill="#00A077"/>
<rect id="Rectangle 415" x="3" y="26" width="1" height="1" fill="#00A077"/>
<rect id="Rectangle 419" x="5" y="26" width="1" height="1" fill="#00A077"/>
<rect id="Rectangle 423" x="11" y="18" width="1" height="1" fill="#00A077"/>
<rect id="Rectangle 427" x="13" y="20" width="1" height="1" fill="#00A077"/>
<rect id="Rectangle 299" x="3" y="24" width="1" height="1" fill="#33591E"/>
<rect id="Rectangle 355" x="9" y="20" width="1" height="1" fill="#33591E"/>
<rect id="Rectangle 291" x="3" y="19" width="1" height="1" fill="#33591E"/>
<rect id="Rectangle 392" x="3" y="21" width="1" height="1" fill="#58CAAF"/>
<rect id="Rectangle 396" x="5" y="23" width="1" height="1" fill="#58CAAF"/>
<rect id="Rectangle 400" x="5" y="21" width="1" height="1" fill="#00A077"/>
<rect id="Rectangle 404" x="7" y="21" width="1" height="1" fill="#00A077"/>
<rect id="Rectangle 412" x="3" y="23" width="1" height="1" fill="#00A077"/>
<rect id="Rectangle 416" x="3" y="27" width="1" height="1" fill="#00A077"/>
<rect id="Rectangle 420" x="5" y="27" width="1" height="1" fill="#00A077"/>
<rect id="Rectangle 424" x="11" y="19" width="1" height="1" fill="#00A077"/>
<rect id="Rectangle 428" x="13" y="21" width="1" height="1" fill="#00A077"/>
<rect id="Rectangle 300" x="3" y="25" width="1" height="1" fill="#33591E"/>
<rect id="Rectangle 356" x="9" y="21" width="1" height="1" fill="#33591E"/>
<rect id="Rectangle 287" x="7" y="18" width="1" height="1" fill="#33591E"/>
<rect id="Rectangle 387" x="7" y="16" width="1" height="1" fill="#33591E"/>
<rect id="Rectangle 292" x="7" y="19" width="1" height="1" fill="#33591E"/>
<rect id="Rectangle 388" x="7" y="17" width="1" height="1" fill="#33591E"/>
<rect id="Rectangle 284" x="4" y="18" width="1" height="1" fill="#33591E"/>
<rect id="Rectangle 393" x="4" y="20" width="1" height="1" fill="#58CAAF"/>
<rect id="Rectangle 397" x="6" y="22" width="1" height="1" fill="#58CAAF"/>
<rect id="Rectangle 401" x="6" y="20" width="1" height="1" fill="#00A077"/>
<rect id="Rectangle 405" x="8" y="20" width="1" height="1" fill="#00A077"/>
<rect id="Rectangle 413" x="4" y="22" width="1" height="1" fill="#00A077"/>
<rect id="Rectangle 417" x="4" y="26" width="1" height="1" fill="#00A077"/>
<rect id="Rectangle 421" x="6" y="26" width="1" height="1" fill="#00A077"/>
<rect id="Rectangle 425" x="12" y="18" width="1" height="1" fill="#00A077"/>
<rect id="Rectangle 429" x="14" y="20" width="1" height="1" fill="#00A077"/>
<rect id="Rectangle 303" x="4" y="24" width="1" height="1" fill="#33591E"/>
<rect id="Rectangle 357" x="10" y="20" width="1" height="1" fill="#33591E"/>
<rect id="Rectangle 293" x="4" y="19" width="1" height="1" fill="#33591E"/>
<rect id="Rectangle 394" x="4" y="21" width="1" height="1" fill="#58CAAF"/>
<rect id="Rectangle 398" x="6" y="23" width="1" height="1" fill="#58CAAF"/>
<rect id="Rectangle 402" x="6" y="21" width="1" height="1" fill="#00A077"/>
<rect id="Rectangle 406" x="8" y="21" width="1" height="1" fill="#00A077"/>
<rect id="Rectangle 414" x="4" y="23" width="1" height="1" fill="#00A077"/>
<rect id="Rectangle 418" x="4" y="27" width="1" height="1" fill="#00A077"/>
<rect id="Rectangle 422" x="6" y="27" width="1" height="1" fill="#00A077"/>
<rect id="Rectangle 426" x="12" y="19" width="1" height="1" fill="#00A077"/>
<rect id="Rectangle 430" x="14" y="21" width="1" height="1" fill="#00A077"/>
<rect id="Rectangle 304" x="4" y="25" width="1" height="1" fill="#33591E"/>
<rect id="Rectangle 358" x="10" y="21" width="1" height="1" fill="#33591E"/>
<rect id="Rectangle 288" x="8" y="18" width="1" height="1" fill="#33591E"/>
<rect id="Rectangle 389" x="8" y="16" width="1" height="1" fill="#33591E"/>
<rect id="Rectangle 294" x="8" y="19" width="1" height="1" fill="#33591E"/>
<rect id="Rectangle 390" x="8" y="17" width="1" height="1" fill="#33591E"/>
<rect id="Rectangle 285" x="5" y="18" width="1" height="1" fill="#33591E"/>
<rect id="Rectangle 307" x="5" y="24" width="1" height="1" fill="#33591E"/>
<rect id="Rectangle 359" x="11" y="20" width="1" height="1" fill="#33591E"/>
<rect id="Rectangle 295" x="5" y="19" width="1" height="1" fill="#33591E"/>
<rect id="Rectangle 308" x="5" y="25" width="1" height="1" fill="#33591E"/>
<rect id="Rectangle 360" x="11" y="21" width="1" height="1" fill="#33591E"/>
<rect id="Rectangle 289" x="9" y="18" width="1" height="1" fill="#33591E"/>
<rect id="Rectangle 371" x="13" y="18" width="1" height="1" fill="#33591E"/>
<rect id="Rectangle 375" x="15" y="20" width="1" height="1" fill="#33591E"/>
<rect id="Rectangle 363" x="1" y="22" width="1" height="1" fill="#33591E"/>
<rect id="Rectangle 364" x="1" y="20" width="1" height="1" fill="#33591E"/>
<rect id="Rectangle 296" x="9" y="19" width="1" height="1" fill="#33591E"/>
<rect id="Rectangle 372" x="13" y="19" width="1" height="1" fill="#33591E"/>
<rect id="Rectangle 376" x="15" y="21" width="1" height="1" fill="#33591E"/>
<rect id="Rectangle 365" x="1" y="23" width="1" height="1" fill="#33591E"/>
<rect id="Rectangle 366" x="1" y="21" width="1" height="1" fill="#33591E"/>
<rect id="Rectangle 286_2" x="6" y="18" width="1" height="1" fill="#33591E"/>
<rect id="Rectangle 311" x="6" y="24" width="1" height="1" fill="#33591E"/>
<rect id="Rectangle 361" x="12" y="20" width="1" height="1" fill="#33591E"/>
<rect id="Rectangle 297" x="6" y="19" width="1" height="1" fill="#33591E"/>
<rect id="Rectangle 312" x="6" y="25" width="1" height="1" fill="#33591E"/>
<rect id="Rectangle 362" x="12" y="21" width="1" height="1" fill="#33591E"/>
<rect id="Rectangle 290_2" x="10" y="18" width="1" height="1" fill="#33591E"/>
<rect id="Rectangle 373" x="14" y="18" width="1" height="1" fill="#33591E"/>
<rect id="Rectangle 377" x="16" y="20" width="1" height="1" fill="#33591E"/>
<rect id="Rectangle 367" x="2" y="22" width="1" height="1" fill="#33591E"/>
<rect id="Rectangle 368" x="2" y="20" width="1" height="1" fill="#33591E"/>
<rect id="Rectangle 298" x="10" y="19" width="1" height="1" fill="#33591E"/>
<rect id="Rectangle 374" x="14" y="19" width="1" height="1" fill="#33591E"/>
<rect id="Rectangle 378" x="16" y="21" width="1" height="1" fill="#33591E"/>
<rect id="Rectangle 369" x="2" y="23" width="1" height="1" fill="#33591E"/>
<rect id="Rectangle 370" x="2" y="21" width="1" height="1" fill="#33591E"/>
<rect id="Rectangle 407" x="7" y="22" width="1" height="1" fill="#00A077"/>
<rect id="Rectangle 408" x="7" y="23" width="1" height="1" fill="#00A077"/>
<rect id="Rectangle 409" x="8" y="22" width="1" height="1" fill="#00A077"/>
<rect id="Rectangle 410" x="8" y="23" width="1" height="1" fill="#00A077"/>
</g>
</g>
</g>
</svg>
