<svg width="32" height="32" viewBox="0 0 32 32" fill="none" xmlns="http://www.w3.org/2000/svg">
<rect x="8" y="9" width="1" height="1" fill="#B7F434"/>
<rect width="1" height="1" transform="matrix(-1 0 0 1 25 10)" fill="#B7F434"/>
<rect x="16" y="7" width="1" height="1" fill="#B7F434"/>
<rect x="17" y="7" width="1" height="1" fill="#B7F434"/>
<rect x="6" y="15" width="1" height="1" fill="#B7F434"/>
<rect x="8" y="15" width="1" height="1" fill="#B7F434"/>
<rect x="23" y="16" width="1" height="1" fill="#B7F434"/>
<rect x="8" y="10" width="1" height="1" fill="#B7F434"/>
<rect width="1" height="1" transform="matrix(-1 0 0 1 25 11)" fill="#B7F434"/>
<rect width="1" height="1" transform="matrix(-1 0 0 1 24 12)" fill="#B7F434"/>
<rect x="16" y="8" width="1" height="1" fill="#B7F434"/>
<rect x="6" y="16" width="1" height="1" fill="#B7F434"/>
<rect x="8" y="8" width="1" height="1" fill="#B7F434"/>
<rect width="1" height="1" transform="matrix(-1 0 0 1 25 9)" fill="#B7F434"/>
<rect x="16" y="6" width="1" height="1" fill="#B7F434"/>
<rect x="8" y="7" width="1" height="1" fill="#B7F434"/>
<rect width="1" height="1" transform="matrix(-1 0 0 1 25 8)" fill="#B7F434"/>
<rect x="16" y="5" width="1" height="1" fill="#B7F434"/>
<rect x="16" y="4" width="1" height="1" fill="#B7F434"/>
<rect x="7" y="7" width="1" height="1" fill="#B7F434"/>
<rect width="1" height="1" transform="matrix(-1 0 0 1 26 8)" fill="#B7F434"/>
<rect x="17" y="5" width="1" height="1" fill="#B7F434"/>
<rect x="7" y="8" width="1" height="1" fill="#B7F434"/>
<rect width="1" height="1" transform="matrix(-1 0 0 1 26 9)" fill="#B7F434"/>
<rect x="15" y="6" width="1" height="1" fill="#B7F434"/>
<rect x="15" y="7" width="1" height="1" fill="#B7F434"/>
<rect x="5" y="15" width="1" height="1" fill="#B7F434"/>
<rect x="4" y="15" width="1" height="1" fill="#B7F434"/>
<rect x="15" y="8" width="1" height="1" fill="#B7F434"/>
<rect x="5" y="16" width="1" height="1" fill="#B7F434"/>
<rect x="9" y="8" width="1" height="1" fill="#B7F434"/>
<rect width="1" height="1" transform="matrix(-1 0 0 1 24 9)" fill="#B7F434"/>
<rect x="17" y="6" width="1" height="1" fill="#B7F434"/>
<rect x="9" y="9" width="1" height="1" fill="#B7F434"/>
<rect width="1" height="1" transform="matrix(-1 0 0 1 24 10)" fill="#B7F434"/>
<rect x="7" y="15" width="1" height="1" fill="#B7F434"/>
<rect x="22" y="16" width="1" height="1" fill="#B7F434"/>
<rect x="7" y="14" width="1" height="1" fill="#B7F434"/>
<rect x="9" y="10" width="1" height="1" fill="#B7F434"/>
<rect width="1" height="1" transform="matrix(-1 0 0 1 24 11)" fill="#B7F434"/>
<rect width="1" height="1" transform="matrix(-1 0 0 1 23 12)" fill="#B7F434"/>
<rect x="7" y="16" width="1" height="1" fill="#B7F434"/>
<rect x="22" y="17" width="1" height="1" fill="#B7F434"/>
<rect x="21" y="17" width="1" height="1" fill="#B7F434"/>
<rect x="20" y="17" width="1" height="1" fill="#B7F434"/>
<rect x="9" y="16" width="1" height="1" fill="#B7F434"/>
<rect x="24" y="17" width="1" height="1" fill="#B7F434"/>
<rect x="8" y="16" width="1" height="1" fill="#B7F434"/>
<rect x="23" y="17" width="1" height="1" fill="#B7F434"/>
<rect x="10" y="16" width="1" height="1" fill="#B7F434"/>
<rect x="25" y="17" width="1" height="1" fill="#B7F434"/>
<rect x="7" y="17" width="1" height="1" fill="#B7F434"/>
<rect x="22" y="18" width="1" height="1" fill="#B7F434"/>
<rect x="21" y="18" width="1" height="1" fill="#B7F434"/>
<rect x="8" y="17" width="1" height="1" fill="#B7F434"/>
<rect x="23" y="18" width="1" height="1" fill="#B7F434"/>
<rect x="9" y="17" width="1" height="1" fill="#B7F434"/>
<rect x="24" y="18" width="1" height="1" fill="#B7F434"/>
<rect x="10" y="10" width="1" height="1" fill="#B7F434"/>
<rect width="1" height="1" transform="matrix(-1 0 0 1 23 11)" fill="#B7F434"/>
<rect width="1" height="1" transform="matrix(-1 0 0 1 22 12)" fill="#B7F434"/>
<rect x="10" y="9" width="1" height="1" fill="#B7F434"/>
<rect width="1" height="1" transform="matrix(-1 0 0 1 23 10)" fill="#B7F434"/>
</svg>
