<svg width="32" height="32" viewBox="0 0 32 32" fill="none" xmlns="http://www.w3.org/2000/svg">
<g id="Top_Flower">
<g id="Top_Flower_2">
<g id="Flower2_Head">
<rect id="Rectangle 73" x="15" y="8" width="1" height="1" fill="#DC5F20"/>
<rect id="Rectangle 77" x="17" y="8" width="1" height="1" fill="#DC5F20"/>
<rect id="Rectangle 151" x="27" y="16" width="1" height="1" fill="#DC5F20"/>
<rect id="Rectangle 159" x="21" y="16" width="1" height="1" fill="#DC5F20"/>
<rect id="Rectangle 74" x="15" y="9" width="1" height="1" fill="#DC5F20"/>
<rect id="Rectangle 78" x="17" y="9" width="1" height="1" fill="#DC5F20"/>
<rect id="Rectangle 152" x="27" y="17" width="1" height="1" fill="#DC5F20"/>
<rect id="Rectangle 160" x="21" y="17" width="1" height="1" fill="#DC5F20"/>
<rect id="Rectangle 127" x="17" y="14" width="1" height="1" fill="#DC5F20"/>
<rect id="Rectangle 167" x="19" y="20" width="1" height="1" fill="#DC5F20"/>
<rect id="Rectangle 175" x="25" y="20" width="1" height="1" fill="#DC5F20"/>
<rect id="Rectangle 183" x="23" y="8" width="1" height="1" fill="#DC5F20"/>
<rect id="Rectangle 191" x="25" y="10" width="1" height="1" fill="#DC5F20"/>
<rect id="Rectangle 195" x="27" y="12" width="1" height="1" fill="#DC5F20"/>
<rect id="Rectangle 199" x="19" y="10" width="1" height="1" fill="#DC5F20"/>
<rect id="Rectangle 203" x="15" y="18" width="1" height="1" fill="#DC5F20"/>
<rect id="Rectangle 135" x="25" y="14" width="1" height="1" fill="#DC5F20"/>
<rect id="Rectangle 128" x="15" y="14" width="1" height="1" fill="#DC5F20"/>
<rect id="Rectangle 168" x="17" y="20" width="1" height="1" fill="#DC5F20"/>
<rect id="Rectangle 176" x="23" y="20" width="1" height="1" fill="#DC5F20"/>
<rect id="Rectangle 184" x="21" y="8" width="1" height="1" fill="#DC5F20"/>
<rect id="Rectangle 136" x="23" y="14" width="1" height="1" fill="#DC5F20"/>
<rect id="Rectangle 144" x="27" y="14" width="1" height="1" fill="#DC5F20"/>
<rect id="Rectangle 119" x="13" y="16" width="1" height="1" fill="#DC5F20"/>
<rect id="Rectangle 153" x="27" y="18" width="1" height="1" fill="#DC5F20"/>
<rect id="Rectangle 161" x="21" y="18" width="1" height="1" fill="#DC5F20"/>
<rect id="Rectangle 129" x="17" y="15" width="1" height="1" fill="#DC5F20"/>
<rect id="Rectangle 169" x="19" y="21" width="1" height="1" fill="#DC5F20"/>
<rect id="Rectangle 177" x="25" y="21" width="1" height="1" fill="#DC5F20"/>
<rect id="Rectangle 185" x="23" y="9" width="1" height="1" fill="#DC5F20"/>
<rect id="Rectangle 192" x="25" y="11" width="1" height="1" fill="#DC5F20"/>
<rect id="Rectangle 196" x="27" y="13" width="1" height="1" fill="#DC5F20"/>
<rect id="Rectangle 200" x="19" y="11" width="1" height="1" fill="#DC5F20"/>
<rect id="Rectangle 204" x="15" y="19" width="1" height="1" fill="#DC5F20"/>
<rect id="Rectangle 137" x="25" y="15" width="1" height="1" fill="#DC5F20"/>
<rect id="Rectangle 130" x="15" y="15" width="1" height="1" fill="#DC5F20"/>
<rect id="Rectangle 170" x="17" y="21" width="1" height="1" fill="#DC5F20"/>
<rect id="Rectangle 178" x="23" y="21" width="1" height="1" fill="#DC5F20"/>
<rect id="Rectangle 186" x="21" y="9" width="1" height="1" fill="#DC5F20"/>
<rect id="Rectangle 138" x="23" y="15" width="1" height="1" fill="#DC5F20"/>
<rect id="Rectangle 146" x="27" y="15" width="1" height="1" fill="#DC5F20"/>
<rect id="Rectangle 120" x="13" y="17" width="1" height="1" fill="#DC5F20"/>
<rect id="Rectangle 154" x="27" y="19" width="1" height="1" fill="#DC5F20"/>
<rect id="Rectangle 162" x="21" y="19" width="1" height="1" fill="#DC5F20"/>
<rect id="Rectangle 75" x="16" y="8" width="1" height="1" fill="#DC5F20"/>
<rect id="Rectangle 79" x="18" y="8" width="1" height="1" fill="#DC5F20"/>
<rect id="Rectangle 155" x="28" y="16" width="1" height="1" fill="#DC5F20"/>
<rect id="Rectangle 163" x="22" y="16" width="1" height="1" fill="#DC5F20"/>
<rect id="Rectangle 76" x="16" y="9" width="1" height="1" fill="#DC5F20"/>
<rect id="Rectangle 235" x="15" y="10" width="1" height="1" fill="#EBB72D"/>
<rect id="Rectangle 251" x="23" y="16" width="1" height="1" fill="#EBB72D"/>
<rect id="Rectangle 267" x="17" y="16" width="1" height="1" fill="#EBB72D"/>
<rect id="Rectangle 302" x="15" y="16" width="1" height="1" fill="#EBB72D"/>
<rect id="Rectangle 283" x="21" y="10" width="1" height="1" fill="#EBB72D"/>
<rect id="Rectangle 236" x="17" y="10" width="1" height="1" fill="#EBB72D"/>
<rect id="Rectangle 252" x="25" y="16" width="1" height="1" fill="#EBB72D"/>
<rect id="Rectangle 268" x="19" y="16" width="1" height="1" fill="#EBB72D"/>
<rect id="Rectangle 284" x="23" y="10" width="1" height="1" fill="#EBB72D"/>
<rect id="Rectangle 247" x="17" y="12" width="1" height="1" fill="#EBB72D"/>
<rect id="Rectangle 253" x="25" y="18" width="1" height="1" fill="#EBB72D"/>
<rect id="Rectangle 269" x="19" y="18" width="1" height="1" fill="#EBB72D"/>
<rect id="Rectangle 285" x="23" y="12" width="1" height="1" fill="#EBB72D"/>
<rect id="Rectangle 298" x="25" y="12" width="1" height="1" fill="#EBB72D"/>
<rect id="Rectangle 237" x="15" y="12" width="1" height="1" fill="#EBB72D"/>
<rect id="Rectangle 254" x="23" y="18" width="1" height="1" fill="#EBB72D"/>
<rect id="Rectangle 270" x="17" y="18" width="1" height="1" fill="#EBB72D"/>
<rect id="Rectangle 238" x="15" y="11" width="1" height="1" fill="#EBB72D"/>
<rect id="Rectangle 255" x="23" y="17" width="1" height="1" fill="#EBB72D"/>
<rect id="Rectangle 271" x="17" y="17" width="1" height="1" fill="#EBB72D"/>
<rect id="Rectangle 303" x="15" y="17" width="1" height="1" fill="#EBB72D"/>
<rect id="Rectangle 287" x="21" y="11" width="1" height="1" fill="#EBB72D"/>
<rect id="Rectangle 239" x="17" y="11" width="1" height="1" fill="#EBB72D"/>
<rect id="Rectangle 256" x="25" y="17" width="1" height="1" fill="#EBB72D"/>
<rect id="Rectangle 272" x="19" y="17" width="1" height="1" fill="#EBB72D"/>
<rect id="Rectangle 288" x="23" y="11" width="1" height="1" fill="#EBB72D"/>
<rect id="Rectangle 248" x="17" y="13" width="1" height="1" fill="#EBB72D"/>
<rect id="Rectangle 257" x="25" y="19" width="1" height="1" fill="#EBB72D"/>
<rect id="Rectangle 273" x="19" y="19" width="1" height="1" fill="#EBB72D"/>
<rect id="Rectangle 289" x="23" y="13" width="1" height="1" fill="#EBB72D"/>
<rect id="Rectangle 299" x="25" y="13" width="1" height="1" fill="#EBB72D"/>
<rect id="Rectangle 240" x="15" y="13" width="1" height="1" fill="#EBB72D"/>
<rect id="Rectangle 258" x="23" y="19" width="1" height="1" fill="#EBB72D"/>
<rect id="Rectangle 274" x="17" y="19" width="1" height="1" fill="#EBB72D"/>
<rect id="Rectangle 241" x="16" y="10" width="1" height="1" fill="#EBB72D"/>
<rect id="Rectangle 259" x="24" y="16" width="1" height="1" fill="#EBB72D"/>
<rect id="Rectangle 275" x="18" y="16" width="1" height="1" fill="#EBB72D"/>
<rect id="Rectangle 304" x="16" y="16" width="1" height="1" fill="#EBB72D"/>
<rect id="Rectangle 291" x="22" y="10" width="1" height="1" fill="#EBB72D"/>
<rect id="Rectangle 242" x="18" y="10" width="1" height="1" fill="#EBB72D"/>
<rect id="Rectangle 260" x="26" y="16" width="1" height="1" fill="#EBB72D"/>
<rect id="Rectangle 276" x="20" y="16" width="1" height="1" fill="#EBB72D"/>
<rect id="Rectangle 292" x="24" y="10" width="1" height="1" fill="#EBB72D"/>
<rect id="Rectangle 249" x="18" y="12" width="1" height="1" fill="#EBB72D"/>
<rect id="Rectangle 261" x="26" y="18" width="1" height="1" fill="#EBB72D"/>
<rect id="Rectangle 277" x="20" y="18" width="1" height="1" fill="#EBB72D"/>
<rect id="Rectangle 293" x="24" y="12" width="1" height="1" fill="#EBB72D"/>
<rect id="Rectangle 300" x="26" y="12" width="1" height="1" fill="#EBB72D"/>
<rect id="Rectangle 243" x="16" y="12" width="1" height="1" fill="#EBB72D"/>
<rect id="Rectangle 262" x="24" y="18" width="1" height="1" fill="#EBB72D"/>
<rect id="Rectangle 278" x="18" y="18" width="1" height="1" fill="#EBB72D"/>
<rect id="Rectangle 244" x="16" y="11" width="1" height="1" fill="#EBB72D"/>
<rect id="Rectangle 263" x="24" y="17" width="1" height="1" fill="#EBB72D"/>
<rect id="Rectangle 279" x="18" y="17" width="1" height="1" fill="#EBB72D"/>
<rect id="Rectangle 305" x="16" y="17" width="1" height="1" fill="#EBB72D"/>
<rect id="Rectangle 295" x="22" y="11" width="1" height="1" fill="#EBB72D"/>
<rect id="Rectangle 245" x="18" y="11" width="1" height="1" fill="#EBB72D"/>
<rect id="Rectangle 264" x="26" y="17" width="1" height="1" fill="#EBB72D"/>
<rect id="Rectangle 280" x="20" y="17" width="1" height="1" fill="#EBB72D"/>
<rect id="Rectangle 296" x="24" y="11" width="1" height="1" fill="#EBB72D"/>
<rect id="Rectangle 250" x="18" y="13" width="1" height="1" fill="#EBB72D"/>
<rect id="Rectangle 265" x="26" y="19" width="1" height="1" fill="#EBB72D"/>
<rect id="Rectangle 281" x="20" y="19" width="1" height="1" fill="#EBB72D"/>
<rect id="Rectangle 297" x="24" y="13" width="1" height="1" fill="#EBB72D"/>
<rect id="Rectangle 301" x="26" y="13" width="1" height="1" fill="#EBB72D"/>
<rect id="Rectangle 246" x="16" y="13" width="1" height="1" fill="#EBB72D"/>
<rect id="Rectangle 266" x="24" y="19" width="1" height="1" fill="#EBB72D"/>
<rect id="Rectangle 282" x="18" y="19" width="1" height="1" fill="#EBB72D"/>
<rect id="Rectangle 80" x="18" y="9" width="1" height="1" fill="#DC5F20"/>
<rect id="Rectangle 156" x="28" y="17" width="1" height="1" fill="#DC5F20"/>
<rect id="Rectangle 164" x="22" y="17" width="1" height="1" fill="#DC5F20"/>
<rect id="Rectangle 131" x="18" y="14" width="1" height="1" fill="#DC5F20"/>
<rect id="Rectangle 171" x="20" y="20" width="1" height="1" fill="#DC5F20"/>
<rect id="Rectangle 179" x="26" y="20" width="1" height="1" fill="#DC5F20"/>
<rect id="Rectangle 187" x="24" y="8" width="1" height="1" fill="#DC5F20"/>
<rect id="Rectangle 193" x="26" y="10" width="1" height="1" fill="#DC5F20"/>
<rect id="Rectangle 197" x="28" y="12" width="1" height="1" fill="#DC5F20"/>
<rect id="Rectangle 201" x="20" y="10" width="1" height="1" fill="#DC5F20"/>
<rect id="Rectangle 205" x="16" y="18" width="1" height="1" fill="#DC5F20"/>
<rect id="Rectangle 139" x="26" y="14" width="1" height="1" fill="#DC5F20"/>
<rect id="Rectangle 132" x="16" y="14" width="1" height="1" fill="#DC5F20"/>
<rect id="Rectangle 172" x="18" y="20" width="1" height="1" fill="#DC5F20"/>
<rect id="Rectangle 180" x="24" y="20" width="1" height="1" fill="#DC5F20"/>
<rect id="Rectangle 188" x="22" y="8" width="1" height="1" fill="#DC5F20"/>
<rect id="Rectangle 140" x="24" y="14" width="1" height="1" fill="#DC5F20"/>
<rect id="Rectangle 148" x="28" y="14" width="1" height="1" fill="#DC5F20"/>
<rect id="Rectangle 121" x="14" y="16" width="1" height="1" fill="#DC5F20"/>
<rect id="Rectangle 157" x="28" y="18" width="1" height="1" fill="#DC5F20"/>
<rect id="Rectangle 165" x="22" y="18" width="1" height="1" fill="#DC5F20"/>
<rect id="Rectangle 133" x="18" y="15" width="1" height="1" fill="#DC5F20"/>
<rect id="Rectangle 173" x="20" y="21" width="1" height="1" fill="#DC5F20"/>
<rect id="Rectangle 181" x="26" y="21" width="1" height="1" fill="#DC5F20"/>
<rect id="Rectangle 189" x="24" y="9" width="1" height="1" fill="#DC5F20"/>
<rect id="Rectangle 194" x="26" y="11" width="1" height="1" fill="#DC5F20"/>
<rect id="Rectangle 198" x="28" y="13" width="1" height="1" fill="#DC5F20"/>
<rect id="Rectangle 202" x="20" y="11" width="1" height="1" fill="#DC5F20"/>
<rect id="Rectangle 206" x="16" y="19" width="1" height="1" fill="#DC5F20"/>
<rect id="Rectangle 141" x="26" y="15" width="1" height="1" fill="#DC5F20"/>
<rect id="Rectangle 134" x="16" y="15" width="1" height="1" fill="#DC5F20"/>
<rect id="Rectangle 174" x="18" y="21" width="1" height="1" fill="#DC5F20"/>
<rect id="Rectangle 182" x="24" y="21" width="1" height="1" fill="#DC5F20"/>
<rect id="Rectangle 190" x="22" y="9" width="1" height="1" fill="#DC5F20"/>
<rect id="Rectangle 142" x="24" y="15" width="1" height="1" fill="#DC5F20"/>
<rect id="Rectangle 150" x="28" y="15" width="1" height="1" fill="#DC5F20"/>
<rect id="Rectangle 122" x="14" y="17" width="1" height="1" fill="#DC5F20"/>
<rect id="Rectangle 158" x="28" y="19" width="1" height="1" fill="#DC5F20"/>
<rect id="Rectangle 166" x="22" y="19" width="1" height="1" fill="#DC5F20"/>
<rect id="Rectangle 81" x="13" y="10" width="1" height="1" fill="#DC5F20"/>
<rect id="Rectangle 82" x="13" y="11" width="1" height="1" fill="#DC5F20"/>
<rect id="Rectangle 83" x="14" y="10" width="1" height="1" fill="#DC5F20"/>
<rect id="Rectangle 84" x="14" y="11" width="1" height="1" fill="#DC5F20"/>
<rect id="Rectangle 85" x="13" y="12" width="1" height="1" fill="#DC5F20"/>
<rect id="Rectangle 86" x="13" y="13" width="1" height="1" fill="#DC5F20"/>
<rect id="Rectangle 89" x="14" y="12" width="1" height="1" fill="#DC5F20"/>
<rect id="Rectangle 90" x="14" y="13" width="1" height="1" fill="#DC5F20"/>
<rect id="Rectangle 306" x="19" y="12" width="1" height="1" fill="#F4D934"/>
<rect id="Rectangle 307" x="21" y="12" width="1" height="1" fill="#F4D934"/>
<rect id="Rectangle 308" x="21" y="14" width="1" height="1" fill="#F4D934"/>
<rect id="Rectangle 309" x="19" y="13" width="1" height="1" fill="#F4D934"/>
<rect id="Rectangle 310" x="21" y="13" width="1" height="1" fill="#F4D934"/>
<rect id="Rectangle 311" x="21" y="15" width="1" height="1" fill="#F4D934"/>
<rect id="Rectangle 312" x="20" y="12" width="1" height="1" fill="#F4D934"/>
<rect id="Rectangle 313" x="22" y="12" width="1" height="1" fill="#F4D934"/>
<rect id="Rectangle 314" x="22" y="14" width="1" height="1" fill="#F4D934"/>
<rect id="Rectangle 294" x="20" y="14" width="1" height="1" fill="#F4D934"/>
<rect id="Rectangle 319" x="19" y="14" width="1" height="1" fill="#F4D934"/>
<rect id="Rectangle 315" x="20" y="13" width="1" height="1" fill="#F4D934"/>
<rect id="Rectangle 316" x="22" y="13" width="1" height="1" fill="#F4D934"/>
<rect id="Rectangle 317" x="22" y="15" width="1" height="1" fill="#F4D934"/>
<rect id="Rectangle 318" x="20" y="15" width="1" height="1" fill="#F4D934"/>
<rect id="Rectangle 320" x="19" y="15" width="1" height="1" fill="#F4D934"/>
</g>
<g id="Flower2_body">
<rect id="Rectangle 339" x="9" y="22" width="1" height="1" fill="#33591E"/>
<rect id="Rectangle 315_2" x="9" y="30" width="1" height="1" fill="#33591E"/>
<rect id="Rectangle 340" x="9" y="23" width="1" height="1" fill="#33591E"/>
<rect id="Rectangle 316_2" x="9" y="31" width="1" height="1" fill="#33591E"/>
<rect id="Rectangle 301_2" x="7" y="24" width="1" height="1" fill="#33591E"/>
<rect id="Rectangle 379" x="7" y="26" width="1" height="1" fill="#33591E"/>
<rect id="Rectangle 383" x="7" y="28" width="1" height="1" fill="#33591E"/>
<rect id="Rectangle 341" x="13" y="22" width="1" height="1" fill="#33591E"/>
<rect id="Rectangle 317_2" x="13" y="30" width="1" height="1" fill="#33591E"/>
<rect id="Rectangle 302_2" x="7" y="25" width="1" height="1" fill="#33591E"/>
<rect id="Rectangle 380" x="7" y="27" width="1" height="1" fill="#33591E"/>
<rect id="Rectangle 384" x="7" y="29" width="1" height="1" fill="#33591E"/>
<rect id="Rectangle 342" x="13" y="23" width="1" height="1" fill="#33591E"/>
<rect id="Rectangle 318_2" x="13" y="31" width="1" height="1" fill="#33591E"/>
<rect id="Rectangle 343" x="10" y="22" width="1" height="1" fill="#33591E"/>
<rect id="Rectangle 319_2" x="10" y="30" width="1" height="1" fill="#33591E"/>
<rect id="Rectangle 344" x="10" y="23" width="1" height="1" fill="#33591E"/>
<rect id="Rectangle 320_2" x="10" y="31" width="1" height="1" fill="#33591E"/>
<rect id="Rectangle 305_2" x="8" y="24" width="1" height="1" fill="#33591E"/>
<rect id="Rectangle 381" x="8" y="26" width="1" height="1" fill="#33591E"/>
<rect id="Rectangle 385" x="8" y="28" width="1" height="1" fill="#33591E"/>
<rect id="Rectangle 345" x="14" y="22" width="1" height="1" fill="#33591E"/>
<rect id="Rectangle 321" x="14" y="30" width="1" height="1" fill="#33591E"/>
<rect id="Rectangle 306_2" x="8" y="25" width="1" height="1" fill="#33591E"/>
<rect id="Rectangle 382" x="8" y="27" width="1" height="1" fill="#33591E"/>
<rect id="Rectangle 386" x="8" y="29" width="1" height="1" fill="#33591E"/>
<rect id="Rectangle 346" x="14" y="23" width="1" height="1" fill="#33591E"/>
<rect id="Rectangle 322" x="14" y="31" width="1" height="1" fill="#33591E"/>
<rect id="Rectangle 347" x="11" y="22" width="1" height="1" fill="#33591E"/>
<rect id="Rectangle 411" x="11" y="24" width="1" height="1" fill="#58CAAF"/>
<rect id="Rectangle 415" x="9" y="26" width="1" height="1" fill="#58CAAF"/>
<rect id="Rectangle 419" x="13" y="26" width="1" height="1" fill="#58CAAF"/>
<rect id="Rectangle 423" x="11" y="28" width="1" height="1" fill="#58CAAF"/>
<rect id="Rectangle 427" x="23" y="28" width="1" height="1" fill="#58CAAF"/>
<rect id="Rectangle 431" x="25" y="26" width="1" height="1" fill="#58CAAF"/>
<rect id="Rectangle 323" x="11" y="30" width="1" height="1" fill="#33591E"/>
<rect id="Rectangle 348" x="11" y="23" width="1" height="1" fill="#33591E"/>
<rect id="Rectangle 412" x="11" y="25" width="1" height="1" fill="#58CAAF"/>
<rect id="Rectangle 416" x="9" y="27" width="1" height="1" fill="#58CAAF"/>
<rect id="Rectangle 420" x="13" y="27" width="1" height="1" fill="#58CAAF"/>
<rect id="Rectangle 424" x="11" y="29" width="1" height="1" fill="#58CAAF"/>
<rect id="Rectangle 428" x="23" y="29" width="1" height="1" fill="#58CAAF"/>
<rect id="Rectangle 432" x="25" y="27" width="1" height="1" fill="#58CAAF"/>
<rect id="Rectangle 324" x="11" y="31" width="1" height="1" fill="#33591E"/>
<rect id="Rectangle 309_2" x="9" y="24" width="1" height="1" fill="#33591E"/>
<rect id="Rectangle 349" x="15" y="22" width="1" height="1" fill="#33591E"/>
<rect id="Rectangle 325" x="15" y="28" width="1" height="1" fill="#33591E"/>
<rect id="Rectangle 331" x="17" y="26" width="1" height="1" fill="#33591E"/>
<rect id="Rectangle 335" x="17" y="24" width="1" height="1" fill="#33591E"/>
<rect id="Rectangle 512" x="19" y="24" width="1" height="1" fill="#33591E"/>
<rect id="Rectangle 516" x="21" y="24" width="1" height="1" fill="#33591E"/>
<rect id="Rectangle 520" x="23" y="24" width="1" height="1" fill="#33591E"/>
<rect id="Rectangle 524" x="25" y="24" width="1" height="1" fill="#33591E"/>
<rect id="Rectangle 528" x="21" y="22" width="1" height="1" fill="#33591E"/>
<rect id="Rectangle 532" x="19" y="22" width="1" height="1" fill="#33591E"/>
<rect id="Rectangle 536" x="23" y="22" width="1" height="1" fill="#33591E"/>
<rect id="Rectangle 540" x="21" y="20" width="1" height="1" fill="#33591E"/>
<rect id="Rectangle 544" x="19" y="28" width="1" height="1" fill="#33591E"/>
<rect id="Rectangle 548" x="21" y="30" width="1" height="1" fill="#33591E"/>
<rect id="Rectangle 552" x="23" y="30" width="1" height="1" fill="#33591E"/>
<rect id="Rectangle 556" x="25" y="30" width="1" height="1" fill="#33591E"/>
<rect id="Rectangle 560" x="27" y="28" width="1" height="1" fill="#33591E"/>
<rect id="Rectangle 564" x="27" y="26" width="1" height="1" fill="#33591E"/>
<rect id="Rectangle 310_2" x="9" y="25" width="1" height="1" fill="#33591E"/>
<rect id="Rectangle 350" x="15" y="23" width="1" height="1" fill="#33591E"/>
<rect id="Rectangle 326" x="15" y="29" width="1" height="1" fill="#33591E"/>
<rect id="Rectangle 332" x="17" y="27" width="1" height="1" fill="#33591E"/>
<rect id="Rectangle 336" x="17" y="25" width="1" height="1" fill="#33591E"/>
<rect id="Rectangle 513" x="19" y="25" width="1" height="1" fill="#33591E"/>
<rect id="Rectangle 517" x="21" y="25" width="1" height="1" fill="#33591E"/>
<rect id="Rectangle 521" x="23" y="25" width="1" height="1" fill="#33591E"/>
<rect id="Rectangle 525" x="25" y="25" width="1" height="1" fill="#33591E"/>
<rect id="Rectangle 529" x="21" y="23" width="1" height="1" fill="#33591E"/>
<rect id="Rectangle 533" x="19" y="23" width="1" height="1" fill="#33591E"/>
<rect id="Rectangle 537" x="23" y="23" width="1" height="1" fill="#33591E"/>
<rect id="Rectangle 541" x="21" y="21" width="1" height="1" fill="#33591E"/>
<rect id="Rectangle 545" x="19" y="29" width="1" height="1" fill="#33591E"/>
<rect id="Rectangle 549" x="21" y="31" width="1" height="1" fill="#33591E"/>
<rect id="Rectangle 553" x="23" y="31" width="1" height="1" fill="#33591E"/>
<rect id="Rectangle 557" x="25" y="31" width="1" height="1" fill="#33591E"/>
<rect id="Rectangle 561" x="27" y="29" width="1" height="1" fill="#33591E"/>
<rect id="Rectangle 565" x="27" y="27" width="1" height="1" fill="#33591E"/>
<rect id="Rectangle 351" x="12" y="22" width="1" height="1" fill="#33591E"/>
<rect id="Rectangle 413" x="12" y="24" width="1" height="1" fill="#58CAAF"/>
<rect id="Rectangle 417" x="10" y="26" width="1" height="1" fill="#58CAAF"/>
<rect id="Rectangle 421" x="14" y="26" width="1" height="1" fill="#58CAAF"/>
<rect id="Rectangle 425" x="12" y="28" width="1" height="1" fill="#58CAAF"/>
<rect id="Rectangle 429" x="24" y="28" width="1" height="1" fill="#58CAAF"/>
<rect id="Rectangle 433" x="26" y="26" width="1" height="1" fill="#58CAAF"/>
<rect id="Rectangle 327" x="12" y="30" width="1" height="1" fill="#33591E"/>
<rect id="Rectangle 352" x="12" y="23" width="1" height="1" fill="#33591E"/>
<rect id="Rectangle 414" x="12" y="25" width="1" height="1" fill="#58CAAF"/>
<rect id="Rectangle 418" x="10" y="27" width="1" height="1" fill="#58CAAF"/>
<rect id="Rectangle 422" x="14" y="27" width="1" height="1" fill="#58CAAF"/>
<rect id="Rectangle 426" x="12" y="29" width="1" height="1" fill="#58CAAF"/>
<rect id="Rectangle 430" x="24" y="29" width="1" height="1" fill="#58CAAF"/>
<rect id="Rectangle 434" x="26" y="27" width="1" height="1" fill="#58CAAF"/>
<rect id="Rectangle 328" x="12" y="31" width="1" height="1" fill="#33591E"/>
<rect id="Rectangle 313_2" x="10" y="24" width="1" height="1" fill="#33591E"/>
<rect id="Rectangle 353" x="16" y="22" width="1" height="1" fill="#33591E"/>
<rect id="Rectangle 329" x="16" y="28" width="1" height="1" fill="#33591E"/>
<rect id="Rectangle 333" x="18" y="26" width="1" height="1" fill="#33591E"/>
<rect id="Rectangle 337" x="18" y="24" width="1" height="1" fill="#33591E"/>
<rect id="Rectangle 514" x="20" y="24" width="1" height="1" fill="#33591E"/>
<rect id="Rectangle 518" x="22" y="24" width="1" height="1" fill="#33591E"/>
<rect id="Rectangle 522" x="24" y="24" width="1" height="1" fill="#33591E"/>
<rect id="Rectangle 526" x="26" y="24" width="1" height="1" fill="#33591E"/>
<rect id="Rectangle 530" x="22" y="22" width="1" height="1" fill="#33591E"/>
<rect id="Rectangle 534" x="20" y="22" width="1" height="1" fill="#33591E"/>
<rect id="Rectangle 538" x="24" y="22" width="1" height="1" fill="#33591E"/>
<rect id="Rectangle 542" x="22" y="20" width="1" height="1" fill="#33591E"/>
<rect id="Rectangle 546" x="20" y="28" width="1" height="1" fill="#33591E"/>
<rect id="Rectangle 550" x="22" y="30" width="1" height="1" fill="#33591E"/>
<rect id="Rectangle 554" x="24" y="30" width="1" height="1" fill="#33591E"/>
<rect id="Rectangle 558" x="26" y="30" width="1" height="1" fill="#33591E"/>
<rect id="Rectangle 562" x="28" y="28" width="1" height="1" fill="#33591E"/>
<rect id="Rectangle 566" x="28" y="26" width="1" height="1" fill="#33591E"/>
<rect id="Rectangle 314_2" x="10" y="25" width="1" height="1" fill="#33591E"/>
<rect id="Rectangle 354" x="16" y="23" width="1" height="1" fill="#33591E"/>
<rect id="Rectangle 330" x="16" y="29" width="1" height="1" fill="#33591E"/>
<rect id="Rectangle 334" x="18" y="27" width="1" height="1" fill="#33591E"/>
<rect id="Rectangle 338" x="18" y="25" width="1" height="1" fill="#33591E"/>
<rect id="Rectangle 515" x="20" y="25" width="1" height="1" fill="#33591E"/>
<rect id="Rectangle 519" x="22" y="25" width="1" height="1" fill="#33591E"/>
<rect id="Rectangle 523" x="24" y="25" width="1" height="1" fill="#33591E"/>
<rect id="Rectangle 527" x="26" y="25" width="1" height="1" fill="#33591E"/>
<rect id="Rectangle 531" x="22" y="23" width="1" height="1" fill="#33591E"/>
<rect id="Rectangle 535" x="20" y="23" width="1" height="1" fill="#33591E"/>
<rect id="Rectangle 539" x="24" y="23" width="1" height="1" fill="#33591E"/>
<rect id="Rectangle 543" x="22" y="21" width="1" height="1" fill="#33591E"/>
<rect id="Rectangle 547" x="20" y="29" width="1" height="1" fill="#33591E"/>
<rect id="Rectangle 551" x="22" y="31" width="1" height="1" fill="#33591E"/>
<rect id="Rectangle 555" x="24" y="31" width="1" height="1" fill="#33591E"/>
<rect id="Rectangle 559" x="26" y="31" width="1" height="1" fill="#33591E"/>
<rect id="Rectangle 563" x="28" y="29" width="1" height="1" fill="#33591E"/>
<rect id="Rectangle 567" x="28" y="27" width="1" height="1" fill="#33591E"/>
<rect id="Rectangle 403" x="13" y="24" width="1" height="1" fill="#00A077"/>
<rect id="Rectangle 436" x="15" y="24" width="1" height="1" fill="#00A077"/>
<rect id="Rectangle 568" x="17" y="22" width="1" height="1" fill="#00A077"/>
<rect id="Rectangle 440" x="15" y="26" width="1" height="1" fill="#00A077"/>
<rect id="Rectangle 444" x="11" y="26" width="1" height="1" fill="#00A077"/>
<rect id="Rectangle 448" x="13" y="28" width="1" height="1" fill="#00A077"/>
<rect id="Rectangle 452" x="9" y="28" width="1" height="1" fill="#00A077"/>
<rect id="Rectangle 456" x="15" y="30" width="1" height="1" fill="#00A077"/>
<rect id="Rectangle 460" x="17" y="30" width="1" height="1" fill="#00A077"/>
<rect id="Rectangle 464" x="19" y="30" width="1" height="1" fill="#00A077"/>
<rect id="Rectangle 468" x="17" y="28" width="1" height="1" fill="#00A077"/>
<rect id="Rectangle 472" x="19" y="26" width="1" height="1" fill="#00A077"/>
<rect id="Rectangle 476" x="21" y="26" width="1" height="1" fill="#00A077"/>
<rect id="Rectangle 480" x="23" y="26" width="1" height="1" fill="#00A077"/>
<rect id="Rectangle 484" x="21" y="28" width="1" height="1" fill="#00A077"/>
<rect id="Rectangle 488" x="25" y="28" width="1" height="1" fill="#00A077"/>
<rect id="Rectangle 492" x="25" y="22" width="1" height="1" fill="#00A077"/>
<rect id="Rectangle 496" x="27" y="22" width="1" height="1" fill="#00A077"/>
<rect id="Rectangle 500" x="27" y="24" width="1" height="1" fill="#00A077"/>
<rect id="Rectangle 504" x="29" y="24" width="1" height="1" fill="#00A077"/>
<rect id="Rectangle 508" x="29" y="26" width="1" height="1" fill="#00A077"/>
<rect id="Rectangle 404" x="13" y="25" width="1" height="1" fill="#00A077"/>
<rect id="Rectangle 437" x="15" y="25" width="1" height="1" fill="#00A077"/>
<rect id="Rectangle 441" x="15" y="27" width="1" height="1" fill="#00A077"/>
<rect id="Rectangle 445" x="11" y="27" width="1" height="1" fill="#00A077"/>
<rect id="Rectangle 449" x="13" y="29" width="1" height="1" fill="#00A077"/>
<rect id="Rectangle 453" x="9" y="29" width="1" height="1" fill="#00A077"/>
<rect id="Rectangle 457" x="15" y="31" width="1" height="1" fill="#00A077"/>
<rect id="Rectangle 461" x="17" y="31" width="1" height="1" fill="#00A077"/>
<rect id="Rectangle 465" x="19" y="31" width="1" height="1" fill="#00A077"/>
<rect id="Rectangle 469" x="17" y="29" width="1" height="1" fill="#00A077"/>
<rect id="Rectangle 473" x="19" y="27" width="1" height="1" fill="#00A077"/>
<rect id="Rectangle 477" x="21" y="27" width="1" height="1" fill="#00A077"/>
<rect id="Rectangle 481" x="23" y="27" width="1" height="1" fill="#00A077"/>
<rect id="Rectangle 485" x="21" y="29" width="1" height="1" fill="#00A077"/>
<rect id="Rectangle 489" x="25" y="29" width="1" height="1" fill="#00A077"/>
<rect id="Rectangle 493" x="25" y="23" width="1" height="1" fill="#00A077"/>
<rect id="Rectangle 497" x="27" y="23" width="1" height="1" fill="#00A077"/>
<rect id="Rectangle 501" x="27" y="25" width="1" height="1" fill="#00A077"/>
<rect id="Rectangle 505" x="29" y="25" width="1" height="1" fill="#00A077"/>
<rect id="Rectangle 509" x="29" y="27" width="1" height="1" fill="#00A077"/>
<rect id="Rectangle 435" x="14" y="25" width="1" height="1" fill="#00A077"/>
<rect id="Rectangle 438" x="16" y="25" width="1" height="1" fill="#00A077"/>
<rect id="Rectangle 569" x="18" y="23" width="1" height="1" fill="#00A077"/>
<rect id="Rectangle 571" x="17" y="23" width="1" height="1" fill="#00A077"/>
<rect id="Rectangle 442" x="16" y="27" width="1" height="1" fill="#00A077"/>
<rect id="Rectangle 446" x="12" y="27" width="1" height="1" fill="#00A077"/>
<rect id="Rectangle 450" x="14" y="29" width="1" height="1" fill="#00A077"/>
<rect id="Rectangle 454" x="10" y="29" width="1" height="1" fill="#00A077"/>
<rect id="Rectangle 458" x="16" y="31" width="1" height="1" fill="#00A077"/>
<rect id="Rectangle 462" x="18" y="31" width="1" height="1" fill="#00A077"/>
<rect id="Rectangle 466" x="20" y="31" width="1" height="1" fill="#00A077"/>
<rect id="Rectangle 470" x="18" y="29" width="1" height="1" fill="#00A077"/>
<rect id="Rectangle 474" x="20" y="27" width="1" height="1" fill="#00A077"/>
<rect id="Rectangle 478" x="22" y="27" width="1" height="1" fill="#00A077"/>
<rect id="Rectangle 482" x="24" y="27" width="1" height="1" fill="#00A077"/>
<rect id="Rectangle 486" x="22" y="29" width="1" height="1" fill="#00A077"/>
<rect id="Rectangle 490" x="26" y="29" width="1" height="1" fill="#00A077"/>
<rect id="Rectangle 494" x="26" y="23" width="1" height="1" fill="#00A077"/>
<rect id="Rectangle 498" x="28" y="23" width="1" height="1" fill="#00A077"/>
<rect id="Rectangle 502" x="28" y="25" width="1" height="1" fill="#00A077"/>
<rect id="Rectangle 506" x="30" y="25" width="1" height="1" fill="#00A077"/>
<rect id="Rectangle 510" x="30" y="27" width="1" height="1" fill="#00A077"/>
<rect id="Rectangle 405" x="14" y="24" width="1" height="1" fill="#00A077"/>
<rect id="Rectangle 439" x="16" y="24" width="1" height="1" fill="#00A077"/>
<rect id="Rectangle 570" x="18" y="22" width="1" height="1" fill="#00A077"/>
<rect id="Rectangle 443" x="16" y="26" width="1" height="1" fill="#00A077"/>
<rect id="Rectangle 447" x="12" y="26" width="1" height="1" fill="#00A077"/>
<rect id="Rectangle 451" x="14" y="28" width="1" height="1" fill="#00A077"/>
<rect id="Rectangle 455" x="10" y="28" width="1" height="1" fill="#00A077"/>
<rect id="Rectangle 459" x="16" y="30" width="1" height="1" fill="#00A077"/>
<rect id="Rectangle 463" x="18" y="30" width="1" height="1" fill="#00A077"/>
<rect id="Rectangle 467" x="20" y="30" width="1" height="1" fill="#00A077"/>
<rect id="Rectangle 471" x="18" y="28" width="1" height="1" fill="#00A077"/>
<rect id="Rectangle 475" x="20" y="26" width="1" height="1" fill="#00A077"/>
<rect id="Rectangle 479" x="22" y="26" width="1" height="1" fill="#00A077"/>
<rect id="Rectangle 483" x="24" y="26" width="1" height="1" fill="#00A077"/>
<rect id="Rectangle 487" x="22" y="28" width="1" height="1" fill="#00A077"/>
<rect id="Rectangle 491" x="26" y="28" width="1" height="1" fill="#00A077"/>
<rect id="Rectangle 495" x="26" y="22" width="1" height="1" fill="#00A077"/>
<rect id="Rectangle 499" x="28" y="22" width="1" height="1" fill="#00A077"/>
<rect id="Rectangle 503" x="28" y="24" width="1" height="1" fill="#00A077"/>
<rect id="Rectangle 507" x="30" y="24" width="1" height="1" fill="#00A077"/>
<rect id="Rectangle 511" x="30" y="26" width="1" height="1" fill="#00A077"/>
</g>
</g>
</g>
</svg>
