<svg width="96" height="64" viewBox="0 0 96 64" fill="none" xmlns="http://www.w3.org/2000/svg">
<rect x="72" y="44.3077" width="33.8824" height="9.84615" transform="rotate(180 72 44.3077)" fill="white"/>
<rect x="86.1176" y="24.6153" width="53.6471" height="4.92308" transform="rotate(180 86.1176 24.6153)" fill="white"/>
<rect x="57.8824" y="4.92316" width="42.3529" height="4.92308" transform="rotate(180 57.8824 4.92316)" fill="white"/>
<rect x="86.1176" y="39.3847" width="8.47059" height="4.92308" transform="rotate(180 86.1176 39.3847)" fill="white"/>
<rect x="14.1177" y="34.4615" width="8.47059" height="4.92308" transform="rotate(180 14.1177 34.4615)" fill="white"/>
<rect x="96" y="24.6153" width="5.64706" height="4.92308" transform="rotate(180 96 24.6153)" fill="white"/>
<rect x="15.5294" y="24.6153" width="5.64706" height="4.92308" transform="rotate(180 15.5294 24.6153)" fill="white"/>
<rect x="12.7059" y="64" width="4.23529" height="4.92308" transform="rotate(180 12.7059 64)" fill="white"/>
<rect x="12.7059" y="4.92316" width="4.23529" height="4.92308" transform="rotate(180 12.7059 4.92316)" fill="white"/>
<rect x="2.82353" y="34.4615" width="2.82353" height="4.92308" transform="rotate(180 2.82353 34.4615)" fill="white"/>
<rect x="2.82353" y="4.92316" width="2.82353" height="4.92308" transform="rotate(180 2.82353 4.92316)" fill="white"/>
<rect x="79.0588" y="9.84607" width="11.2941" height="4.92308" transform="rotate(180 79.0588 9.84607)" fill="white"/>
<rect x="67.7647" y="64" width="50.8235" height="4.92308" transform="rotate(180 67.7647 64)" fill="white"/>
<rect x="40.9412" y="54.1539" width="28.2353" height="4.92308" transform="rotate(180 40.9412 54.1539)" fill="white"/>
</svg>
