<svg width="128" height="96" viewBox="0 0 128 96" fill="none" xmlns="http://www.w3.org/2000/svg">
<rect width="45.1765" height="14.7692" transform="matrix(1 0 0 -1 32 66.4615)" fill="white"/>
<rect width="71.5294" height="7.38462" transform="matrix(1 0 0 -1 13.1765 36.923)" fill="white"/>
<rect width="56.4706" height="7.38462" transform="matrix(1 0 0 -1 50.8235 7.3847)" fill="white"/>
<rect width="11.2941" height="7.38462" transform="matrix(1 0 0 -1 13.1765 59.077)" fill="white"/>
<rect width="11.2941" height="7.38462" transform="matrix(1 0 0 -1 109.176 51.6923)" fill="white"/>
<rect width="7.52941" height="7.38462" transform="matrix(1 0 0 -1 0 36.923)" fill="white"/>
<rect width="7.52941" height="7.38462" transform="matrix(1 0 0 -1 107.294 36.923)" fill="white"/>
<rect width="5.64706" height="7.38462" transform="matrix(1 0 0 -1 111.059 96)" fill="white"/>
<rect width="5.64706" height="7.38462" transform="matrix(1 0 0 -1 111.059 7.3847)" fill="white"/>
<rect width="3.76471" height="7.38462" transform="matrix(1 0 0 -1 124.235 51.6923)" fill="white"/>
<rect width="3.76471" height="7.38462" transform="matrix(1 0 0 -1 124.235 7.3847)" fill="white"/>
<rect width="15.0588" height="7.38462" transform="matrix(1 0 0 -1 22.5882 14.7691)" fill="white"/>
<rect width="67.7647" height="7.38462" transform="matrix(1 0 0 -1 37.6471 96)" fill="white"/>
<rect width="37.6471" height="7.38462" transform="matrix(1 0 0 -1 73.4118 81.2309)" fill="white"/>
</svg>
